<?xml version="1.0" encoding="UTF-8" standalone="no"?>
<svg
   xmlns:dc="http://purl.org/dc/elements/1.1/"
   xmlns:cc="http://creativecommons.org/ns#"
   xmlns:rdf="http://www.w3.org/1999/02/22-rdf-syntax-ns#"
   xmlns:svg="http://www.w3.org/2000/svg"
   xmlns="http://www.w3.org/2000/svg"
   version="1.1"
   id="svg16893"
   viewBox="0 0 300 86.226839"
   height="86.226837"
   width="300">
  <defs
     id="defs16895">
    <clipPath
       id="clipPath16058"
       clipPathUnits="userSpaceOnUse">
      <path
         id="path16060"
         d="m 0,0 598.11,0 0,737.008 L 0,737.008 0,0 Z" />
    </clipPath>
    <clipPath
       id="clipPath16034"
       clipPathUnits="userSpaceOnUse">
      <path
         id="path16036"
         d="m 0,0 598.11,0 0,737.008 L 0,737.008 0,0 Z" />
    </clipPath>
    <clipPath
       id="clipPath15990"
       clipPathUnits="userSpaceOnUse">
      <path
         id="path15992"
         d="m 0,0 598.11,0 0,737.008 L 0,737.008 0,0 Z" />
    </clipPath>
    <clipPath
       id="clipPath15906"
       clipPathUnits="userSpaceOnUse">
      <path
         id="path15908"
         d="m 0,0 598.11,0 0,737.008 L 0,737.008 0,0 Z" />
    </clipPath>
  </defs>
  <metadata
     id="metadata16898">
    <rdf:RDF>
      <cc:Work
         rdf:about="">
        <dc:format>image/svg+xml</dc:format>
        <dc:type
           rdf:resource="http://purl.org/dc/dcmitype/StillImage" />
        <dc:title></dc:title>
      </cc:Work>
    </rdf:RDF>
  </metadata>
  <g
     transform="translate(52.439903,-476.81564)"
     id="layer1">
    <g
       id="g15902"
       transform="matrix(2.1025538,0,0,-2.1025538,-945.43842,1967.8152)">
      <g
         clip-path="url(#clipPath15906)"
         id="g15904">
        <g
           transform="translate(500.6749,698.2117)"
           id="g15910">
          <path
             id="path15912"
             style="fill:#939ca1;fill-opacity:1;fill-rule:nonzero;stroke:none"
             d="m 0,0 c -0.198,-0.24 -0.31,-0.508 -0.31,-0.974 l 0,-12.813 -0.071,0 c 0,0 -7.013,12.503 -7.352,13.081 -0.24,0.41 -0.508,0.692 -0.861,0.904 -0.353,0.197 -0.72,0.324 -1.425,0.324 l -2.314,0 c -0.537,0 -0.875,-0.183 -1.115,-0.466 -0.198,-0.239 -0.311,-0.508 -0.311,-0.973 l 0,-18.162 c 0,-0.466 0.113,-0.734 0.311,-0.974 0.24,-0.282 0.578,-0.465 1.115,-0.465 l 1.312,0 c 0.536,0 0.875,0.183 1.115,0.465 0.197,0.24 0.31,0.508 0.31,0.974 l 0,13.124 0.071,0 c 0,0 7.281,-12.898 7.578,-13.378 0.409,-0.677 1.1,-1.185 2.088,-1.185 l 2.244,0 c 0.536,0 0.875,0.183 1.115,0.465 0.197,0.24 0.31,0.508 0.31,0.974 l 0,16.384 29.479,0 c 0.297,0 0.522,0.084 0.692,0.225 0.183,0.17 0.268,0.396 0.268,0.734 l 0,1.242 c 0,0.339 -0.085,0.565 -0.268,0.734 -0.17,0.141 -0.395,0.226 -0.692,0.226 l -32.174,0 C 0.579,0.466 0.24,0.282 0,0 m 12.87,-4.854 c -4.897,0 -7.649,-3.825 -7.649,-7.861 0,-4.304 2.95,-8.086 7.677,-8.086 2.357,0 4.671,0.889 5.997,2.456 0.579,0.677 1.045,1.623 1.045,2.201 0,0.198 -0.043,0.367 -0.155,0.494 -0.113,0.141 -0.283,0.226 -0.579,0.226 l -2.272,0 c -0.452,0 -0.762,-0.169 -0.988,-0.508 -0.663,-0.974 -1.623,-1.482 -3.034,-1.482 -2.117,0 -3.485,1.609 -3.584,3.373 l 9.822,0 c 0.437,0 0.747,0.099 0.959,0.31 0.24,0.226 0.353,0.551 0.353,1.158 0,1.848 -0.579,3.767 -1.792,5.235 -1.242,1.482 -3.133,2.484 -5.8,2.484 m 15.141,0 c -3.866,0 -6.406,-1.835 -6.406,-4.77 0,-1.044 0.381,-1.891 1.002,-2.554 0.72,-0.777 1.75,-1.313 3.246,-1.694 l 3.231,-0.818 c 0.889,-0.226 1.679,-0.494 1.679,-1.27 0,-1.2 -1.27,-1.609 -2.624,-1.609 -0.664,0 -1.355,0.127 -1.92,0.409 -0.395,0.198 -0.733,0.48 -0.973,0.861 -0.212,0.325 -0.282,0.565 -0.607,0.748 -0.198,0.113 -0.438,0.127 -0.762,0.127 l -1.75,0 c -0.381,0 -0.564,-0.113 -0.691,-0.268 -0.127,-0.155 -0.17,-0.381 -0.17,-0.607 0,-0.564 0.198,-1.27 0.664,-1.905 1.072,-1.439 3.316,-2.597 6.18,-2.597 2.823,0 6.732,1.172 6.732,4.954 0,0.973 -0.283,1.806 -0.805,2.483 -0.663,0.861 -1.608,1.454 -3.217,1.863 l -3.203,0.819 c -1.327,0.338 -1.948,0.578 -1.948,1.397 0,0.79 0.706,1.425 2.342,1.425 0.96,0 1.835,-0.212 2.4,-0.805 0.465,-0.494 0.381,-0.748 0.748,-0.945 0.225,-0.113 0.479,-0.113 0.875,-0.113 l 1.594,0 c 0.254,0 0.438,0.042 0.578,0.198 0.114,0.127 0.184,0.324 0.184,0.649 0,0.734 -0.48,1.679 -1.326,2.399 -1.129,0.974 -2.907,1.623 -5.053,1.623 m 8.792,-0.537 -0.79,0 c -0.296,0 -0.522,-0.084 -0.691,-0.225 -0.184,-0.17 -0.269,-0.396 -0.269,-0.734 l 0,-0.974 c 0,-0.339 0.085,-0.564 0.269,-0.734 0.169,-0.141 0.395,-0.226 0.691,-0.226 l 0.79,0 0,-7.041 c 0,-1.806 0.494,-2.935 1.411,-3.839 0.847,-0.832 1.948,-1.354 3.867,-1.354 l 1.199,0 c 0.297,0 0.522,0.084 0.692,0.225 0.183,0.17 0.296,0.396 0.296,0.734 l 0,1.228 c 0,0.339 -0.113,0.564 -0.296,0.734 -0.17,0.141 -0.395,0.226 -0.692,0.226 l -0.169,0 c -0.762,0 -1.284,0.197 -1.637,0.536 -0.423,0.395 -0.635,1.002 -0.635,1.792 l 0,6.759 2.569,0 c 0.296,0 0.522,0.085 0.691,0.226 0.183,0.17 0.268,0.395 0.268,0.734 l 0,0.974 c 0,0.338 -0.085,0.564 -0.268,0.734 -0.169,0.141 -0.395,0.225 -0.691,0.225 l -2.555,0 0,4.601 c 0,0.367 -0.113,0.635 -0.282,0.846 -0.212,0.254 -0.508,0.41 -0.945,0.41 l -1.595,0 c -0.438,0 -0.734,-0.156 -0.946,-0.41 -0.169,-0.211 -0.282,-0.479 -0.282,-0.846 l 0,-4.601 z m 8.637,-13.871 c 0,-0.367 0.112,-0.635 0.282,-0.847 0.211,-0.254 0.508,-0.409 0.945,-0.409 l 1.679,0 c 0.438,0 0.734,0.155 0.946,0.409 0.169,0.212 0.282,0.48 0.282,0.847 l 0,18.471 c 0,0.367 -0.113,0.635 -0.282,0.847 -0.212,0.254 -0.508,0.41 -0.946,0.41 l -1.679,0 c -0.437,0 -0.734,-0.156 -0.945,-0.41 -0.17,-0.212 -0.282,-0.48 -0.282,-0.847 l 0,-18.471 z m -36.084,8.227 c 0.183,1.736 1.51,3.034 3.528,3.034 1.976,0 3.344,-1.298 3.528,-3.034 l -7.056,0 z m 55.501,8.34 c 0.296,0 0.522,0.084 0.691,0.225 0.184,0.17 0.269,0.396 0.269,0.734 l 0,1.313 c 0,0.508 -0.099,0.762 -0.269,0.945 -0.155,0.17 -0.409,0.268 -0.691,0.268 -0.226,0 -0.451,-0.028 -0.832,-0.07 L 52.763,-0.395 C 52.439,-0.423 52.284,-0.522 52.171,-0.649 52.044,-0.79 51.987,-0.974 51.987,-1.228 l 0,-0.733 c 0,-0.283 0.057,-0.41 0.156,-0.523 0.126,-0.141 0.31,-0.211 0.564,-0.211 l 12.15,0 z m -6.223,-2.159 c -4.897,0 -7.649,-3.825 -7.649,-7.861 0,-4.304 2.95,-8.086 7.677,-8.086 2.357,0 4.671,0.889 5.997,2.456 0.579,0.677 1.045,1.623 1.045,2.201 0,0.198 -0.043,0.367 -0.156,0.494 -0.112,0.141 -0.282,0.226 -0.578,0.226 l -2.272,0 c -0.452,0 -0.762,-0.169 -0.988,-0.508 -0.663,-0.974 -1.623,-1.482 -3.034,-1.482 -2.117,0 -3.486,1.609 -3.584,3.373 l 9.85,0 c 0.437,0 0.748,0.099 0.959,0.31 0.24,0.226 0.353,0.551 0.353,1.158 0,1.848 -0.579,3.767 -1.792,5.235 -1.242,1.482 -3.161,2.484 -5.828,2.484 m -3.514,-6.181 c 0.184,1.736 1.51,3.034 3.528,3.034 1.976,0 3.344,-1.298 3.528,-3.034 l -7.056,0 z" />
        </g>
        <g
           transform="translate(471.0004,695.3475)"
           id="g15914">
          <path
             id="path15916"
             style="fill:#939ca1;fill-opacity:1;fill-rule:nonzero;stroke:none"
             d="m 0,0 c -3.653,5.449 -6.863,7.285 -7.766,8.149 -0.992,0.953 -1.748,2.033 -2.229,2.553 -1.07,1.169 -2.455,2.612 -4.733,2.612 -2.199,0 -3.652,-1.433 -4.124,-2.671 -0.137,-0.353 -0.245,-0.785 -0.343,-0.942 -0.216,-0.354 -1.188,-2.013 -1.591,-2.671 l 1.817,0 -0.884,-1.669 c 1.031,0.226 1.767,0.393 2.749,0.393 0.874,0 1.502,-0.207 1.777,-0.756 0.511,-1.022 0.511,-4.114 1.375,-6.442 0.805,-2.188 2.769,-4.329 4.978,-5.969 0.029,-0.019 0.059,-0.029 0.098,-0.029 0.108,0 0.177,0.078 0.177,0.157 0,0.059 -0.02,0.098 -0.069,0.147 -1.846,1.846 -3.348,3.888 -4.153,6.126 -0.796,2.18 -0.668,5.244 -1.365,6.609 -0.462,0.903 -1.443,1.138 -2.347,1.138 -0.726,0 -1.404,-0.147 -1.718,-0.215 l 0.795,1.345 -1.345,0 c 0.285,0.5 0.579,0.962 0.727,1.237 0.127,0.236 0.177,0.53 0.334,0.932 0.51,1.287 1.639,2.102 3.112,2.102 1.846,0 2.926,-1.188 3.996,-2.376 0.491,-0.55 1.296,-1.699 2.229,-2.553 0.638,-0.589 1.856,-1.247 3.731,-3.182 1.08,-1.119 2.337,-2.572 3.662,-4.516 4.743,-6.941 7.855,-13.058 9.593,-17.83 l -0.029,-0.02 c -4.978,3.378 -9.289,6.569 -12.764,10.506 -2.465,2.798 -4.605,6.038 -6.471,10.172 -0.128,0.275 -0.235,0.53 -0.353,0.795 -0.049,0.108 -0.098,0.138 -0.177,0.138 -0.098,0 -0.167,-0.069 -0.167,-0.167 0,-0.108 0.049,-0.344 0.157,-0.815 0.992,-4.281 3.741,-8.12 6.677,-11.311 2.926,-3.172 6.234,-5.901 8.954,-7.885 l 2.121,-6.067 c 0.049,-0.148 0.108,-0.305 0.108,-0.452 0,-0.108 -0.03,-0.196 -0.098,-0.255 -0.059,-0.059 -0.137,-0.089 -0.314,-0.089 l -0.638,0 c -0.275,0 -0.384,0.04 -0.482,0.118 -0.098,0.079 -0.166,0.197 -0.216,0.334 -0.186,0.57 -1.306,3.761 -1.521,4.409 -0.04,0.117 -0.109,0.157 -0.187,0.157 -0.098,0 -0.167,-0.079 -0.167,-0.167 0,-0.079 0.029,-0.167 0.079,-0.442 0.284,-1.453 0.618,-3.083 0.755,-3.702 0.06,-0.284 0.128,-0.55 0.128,-0.746 0,-0.176 -0.039,-0.275 -0.186,-0.422 L 3.034,-24.9 c -0.157,-0.157 -0.246,-0.196 -0.373,-0.196 -0.157,0 -0.285,0.108 -0.344,0.383 -0.746,3.486 -1.875,7.805 -2.17,9.004 -0.069,0.264 -0.118,0.412 -0.275,0.412 -0.137,0 -0.186,-0.098 -0.186,-0.216 0,-0.088 0.019,-0.196 0.029,-0.275 0.177,-1.237 0.894,-5.744 1.669,-9.858 0.138,-0.707 0.403,-1.099 1.012,-1.099 0.275,0 0.539,0.108 0.785,0.343 0.403,0.403 0.52,0.511 1.002,0.982 0.343,0.334 0.579,0.471 1.168,0.471 l 1.453,0 c 0.344,0 0.53,0.088 0.697,0.246 0.157,0.147 0.255,0.353 0.255,0.648 0,0.304 -0.078,0.549 -0.186,0.854 -0.373,1.001 -1.571,4.389 -1.925,5.341 l 0.03,0.02 c 1.227,-0.933 3.014,-2.121 3.8,-2.121 0.245,0 0.393,0.108 0.393,0.491 0,1.806 -3.005,9.239 -9.868,19.47" />
        </g>
        <g
           transform="translate(437.2935,706.7568)"
           id="g15918">
          <path
             id="path15920"
             style="fill:#939ca1;fill-opacity:1;fill-rule:nonzero;stroke:none"
             d="m 0,0 c 0.206,0.452 0.658,0.766 1.198,0.766 0.736,0 1.325,-0.57 1.325,-1.326 0,-0.441 -0.206,-0.825 -0.53,-1.06 0.069,-0.256 0.118,-0.481 0.118,-0.697 0,-0.825 -0.491,-1.404 -1.394,-1.709 -0.118,-0.5 -0.334,-0.952 -0.688,-1.286 -0.589,-0.569 -1.188,-0.569 -1.188,-0.805 0,-0.128 0.089,-0.206 0.334,-0.206 1.09,0 2.16,0.608 2.288,1.62 1.041,0.353 1.669,1.404 1.669,2.238 0,0.217 -0.02,0.403 -0.108,0.579 0.285,0.276 0.619,0.747 0.619,1.444 0,0.609 -0.266,1.227 -0.737,1.679 -0.412,0.403 -0.992,0.668 -1.669,0.668 -0.982,0 -1.62,-0.531 -1.983,-1.051 -1.071,0 -2.455,-1.188 -2.455,-2.887 l -0.147,0 c -0.099,0.589 -0.707,0.983 -1.218,1.012 -0.412,1.237 -1.345,2.297 -2.877,2.297 -0.176,0 -0.392,-0.01 -0.579,-0.039 -0.451,0.413 -0.952,0.668 -1.649,0.668 -1.336,0 -2.426,-1.071 -2.426,-2.425 0,-0.845 0.383,-1.424 1.11,-1.935 0,0 -0.01,-0.108 -0.01,-0.157 0,-1.08 1.178,-2.769 2.926,-2.769 0,-0.274 0.344,-0.648 0.727,-0.716 l 0,-0.138 -0.148,0 c -2.405,0 -3.426,-1.159 -3.426,-1.934 -0.717,-0.295 -1.179,-1.09 -1.179,-1.826 0,-1.463 1.071,-2.504 2.485,-2.504 0.471,0 0.952,0.186 1.286,0.442 0.245,-0.088 0.559,-0.137 0.883,-0.137 0.678,0 1.434,0.235 1.964,1.011 0.079,-0.01 0.147,-0.01 0.226,-0.01 0.864,0 1.61,0.57 2.003,1.316 0.098,0.186 0.137,0.333 0.137,0.442 0,0.107 -0.049,0.196 -0.157,0.196 -0.137,0 -0.157,-0.128 -0.402,-0.354 -0.55,-0.501 -1.395,-0.687 -2.259,-0.687 -0.422,-0.619 -0.942,-0.943 -1.541,-0.943 -0.442,0 -0.785,0.118 -1.139,0.354 -0.285,-0.314 -0.638,-0.442 -0.982,-0.442 -0.775,0 -1.325,0.54 -1.325,1.326 0,0.55 0.353,1.04 0.844,1.227 0.088,0.972 1.129,1.63 2.425,1.63 0.167,0 0.334,-0.01 0.511,-0.03 0.196,0.314 0.667,0.648 1.335,0.737 0.138,0.019 0.245,0.029 0.324,0.068 0.079,0.04 0.118,0.118 0.118,0.207 0,0.078 -0.03,0.147 -0.108,0.196 -0.069,0.039 -0.187,0.058 -0.324,0.088 -0.619,0.118 -1.355,0.501 -1.728,1.434 -1.483,0 -2.573,1.188 -2.573,2.523 l 0,0.088 c -0.491,0.197 -0.824,0.668 -0.824,1.228 0,0.736 0.579,1.325 1.315,1.325 0.442,0 0.825,-0.216 1.071,-0.54 0.206,0.059 0.441,0.079 0.667,0.079 1.1,0 2.278,-0.697 2.504,-2.052 1.414,-0.128 1.748,-1.326 1.836,-1.827 0.049,-0.255 0.088,-0.471 0.255,-0.471 0.177,0 0.216,0.197 0.275,0.462 0.108,0.5 0.295,0.903 0.668,1.217 C -2.327,-1.109 -1.365,0 0,0" />
        </g>
        <g
           transform="translate(440.1505,699.0592)"
           id="g15922">
          <path
             id="path15924"
             style="fill:#939ca1;fill-opacity:1;fill-rule:nonzero;stroke:none"
             d="m 0,0 c -0.462,-0.658 -0.795,-0.982 -1.846,-2.219 -1.384,-1.64 -2.111,-2.966 -3.319,-5.911 0.197,0.02 0.482,0.039 0.796,0.039 0.157,0 0.284,0 0.491,-0.009 l 0.147,0.314 c 0.678,1.453 1.59,3.417 2.867,4.929 l 0.442,0.52 c 1.315,1.541 2.13,2.455 2.641,4.556 0.177,0.746 0.324,1.413 0.825,1.895 0.451,0.432 1.021,0.618 1.6,0.618 0.491,0 0.855,-0.118 1.385,-0.343 0.481,-0.206 0.657,-0.246 1.168,-0.246 0.177,0 0.304,0.01 0.422,0.02 L 6.932,3.24 7.865,2.582 C 6.696,2.239 6.078,1.109 5.871,0.589 5.832,0.481 5.813,0.412 5.813,0.343 c 0,-0.079 0.039,-0.157 0.157,-0.157 0.127,0 0.225,0.098 0.392,0.295 0.57,0.687 1.022,1.159 3.122,1.816 l -1.482,1.12 1.119,1.639 -1.05,0 c -0.668,0 -1.11,0.01 -1.689,0.275 C 5.596,5.694 5.194,5.851 4.497,5.851 3.643,5.851 2.867,5.547 2.229,4.958 1.492,4.281 1.266,3.377 1.002,2.385 0.795,1.62 0.55,0.775 0,0" />
        </g>
        <g
           transform="translate(442.4087,692.3728)"
           id="g15926">
          <path
             id="path15928"
             style="fill:#939ca1;fill-opacity:1;fill-rule:nonzero;stroke:none"
             d="m 0,0 c -0.56,-0.756 -1.326,-1.747 -1.915,-2.798 0.187,-0.089 0.806,-0.423 1.022,-0.54 0.677,1.021 1.62,2.277 2.238,3.23 0.56,0.864 0.786,1.237 0.825,2.396 0.01,0.196 0.01,0.383 0.029,0.569 0.049,0.599 0.207,1.208 0.776,1.767 0.422,0.423 1.031,0.638 1.64,0.638 0.589,0 0.932,-0.166 1.443,-0.166 0.363,0 0.628,0.088 0.864,0.176 L 7.109,5.341 6.657,4.26 7.717,3.829 C 7.04,3.407 5.557,1.59 5.557,-0.56 c 0,-0.776 0.118,-1.492 0.285,-2.13 0.02,-0.069 0.059,-0.138 0.167,-0.138 0.098,0 0.167,0.059 0.177,0.167 l 0.01,0.226 c 0.029,0.658 0.078,1.698 0.343,2.631 0.442,1.571 1.63,3.044 2.818,3.751 L 7.668,4.683 8.395,6.46 7.6,6.293 C 7.119,6.195 6.765,6.107 6.343,6.107 6.068,6.107 5.754,6.146 5.381,6.235 5.096,6.303 4.791,6.362 4.36,6.362 3.584,6.362 2.749,6.068 2.18,5.518 1.139,4.526 1.08,3.456 1.011,2.503 0.923,1.237 0.687,0.923 0,0" />
        </g>
        <g
           transform="translate(467.6031,691.774)"
           id="g15930">
          <path
             id="path15932"
             style="fill:#939ca1;fill-opacity:1;fill-rule:nonzero;stroke:none"
             d="m 0,0 c -0.069,0.088 -0.128,0.128 -0.206,0.128 -0.118,0 -0.177,-0.079 -0.177,-0.167 0,-0.138 0.098,-0.305 0.344,-0.718 0.746,-1.266 1.669,-2.542 2.808,-3.741 1.227,-1.305 2.67,-2.522 4.212,-3.612 l 0.481,-0.334 c 0.069,-0.05 0.118,-0.079 0.177,-0.079 0.098,0 0.167,0.098 0.167,0.177 0,0.049 -0.02,0.099 -0.079,0.148 C 6.294,-6.893 4.752,-5.302 3.309,-3.771 2.179,-2.563 1.021,-1.287 0,0" />
        </g>
        <g
           transform="translate(436.0071,696.2215)"
           id="g15934">
          <path
             id="path15936"
             style="fill:#939ca1;fill-opacity:1;fill-rule:nonzero;stroke:none"
             d="M 0,0 C 0.147,0.245 0.589,0.844 0.766,1.031 0.01,2.562 -1.227,4.025 -1.767,4.605 L -2.219,4.163 C -1.698,3.407 -0.825,1.944 0,0" />
        </g>
        <g
           transform="translate(428.8102,705.0874)"
           id="g15938">
          <path
             id="path15940"
             style="fill:#939ca1;fill-opacity:1;fill-rule:nonzero;stroke:none"
             d="m 0,0 c -0.089,0.079 -0.108,0.128 -0.108,0.187 0,0.068 0.049,0.147 0.157,0.147 0.039,0 0.078,-0.01 0.128,-0.03 0.726,-0.294 1.345,-0.638 1.895,-1.06 0.461,-0.353 0.913,-0.786 1.354,-1.306 L 3.014,-2.533 C 2.504,-2.11 0.854,-0.727 0,0" />
        </g>
        <g
           transform="translate(435.7715,701.7983)"
           id="g15942">
          <path
             id="path15944"
             style="fill:#939ca1;fill-opacity:1;fill-rule:nonzero;stroke:none"
             d="M 0,0 -0.53,0.324 C -0.187,1.139 0.236,1.885 0.736,2.445 1.09,2.847 1.424,3.172 1.797,3.495 1.885,3.564 1.934,3.623 2.022,3.623 2.121,3.623 2.19,3.544 2.19,3.466 2.19,3.427 2.17,3.378 2.131,3.319 1.532,2.386 0.363,0.54 0,0" />
        </g>
        <g
           transform="translate(429.1147,697.2427)"
           id="g15946">
          <path
             id="path15948"
             style="fill:#939ca1;fill-opacity:1;fill-rule:nonzero;stroke:none"
             d="m 0,0 c -0.128,-0.049 -0.187,-0.079 -0.255,-0.079 -0.108,0 -0.158,0.089 -0.158,0.158 0,0.068 0.03,0.107 0.099,0.167 1.207,0.942 2.268,1.315 3.731,1.561 L 3.593,1.217 0,0 Z" />
        </g>
        <g
           transform="translate(454.2989,704.8614)"
           id="g15950">
          <path
             id="path15952"
             style="fill:#939ca1;fill-opacity:1;fill-rule:nonzero;stroke:none"
             d="M 0,0 C 0,0.344 0.177,0.963 0.815,0.963 1.031,0.963 1.237,0.914 1.404,0.835 1.64,0.727 1.797,0.57 1.797,0.403 1.797,0.226 1.62,0.049 1.355,-0.167 1.08,-0.392 0.727,-0.599 0.442,-0.599 0.099,-0.599 0,-0.274 0,0" />
        </g>
        <g
           transform="translate(444.3332,701.9946)"
           id="g15954">
          <path
             id="path15956"
             style="fill:#939ca1;fill-opacity:1;fill-rule:nonzero;stroke:none"
             d="M 0,0 C 0,0.422 0.255,0.884 0.746,0.884 0.962,0.884 1.217,0.796 1.404,0.618 1.512,0.52 1.561,0.413 1.561,0.304 1.561,0.068 1.335,-0.157 1.07,-0.314 0.864,-0.432 0.648,-0.511 0.462,-0.511 0.157,-0.511 0,-0.323 0,0" />
        </g>
        <g
           transform="translate(446.6406,695.9366)"
           id="g15958">
          <path
             id="path15960"
             style="fill:#939ca1;fill-opacity:1;fill-rule:nonzero;stroke:none"
             d="M 0,0 C 0,0.098 0.01,0.216 0.049,0.334 0.128,0.589 0.294,0.835 0.707,0.835 0.894,0.835 1.099,0.786 1.266,0.667 1.414,0.569 1.473,0.442 1.473,0.314 1.473,-0.108 0.766,-0.599 0.412,-0.599 0.157,-0.599 0,-0.353 0,0" />
        </g>
        <g
           transform="translate(442.7721,683.546)"
           id="g15962">
          <path
             id="path15964"
             style="fill:#939ca1;fill-opacity:1;fill-rule:nonzero;stroke:none"
             d="m 0,0 c -1.325,0 -1.915,0.628 -1.915,1.423 0,1.395 2.445,2.759 4.644,3.604 L 3.299,4.29 C 1.944,3.751 -0.785,2.591 -0.785,1.59 c 0,-0.353 0.206,-0.609 1.03,-0.609 1.434,0 2.976,0.698 4.399,1.395 0.108,0.049 0.236,0.098 0.354,0.098 0.186,0 0.304,-0.059 0.441,-0.255 L 5.675,1.895 C 4.016,0.981 1.944,0 0,0" />
        </g>
        <g
           transform="translate(446.4247,683.1725)"
           id="g15966">
          <path
             id="path15968"
             style="fill:#939ca1;fill-opacity:1;fill-rule:nonzero;stroke:none"
             d="m 0,0 c -1.296,-0.726 -2.641,-1.208 -3.829,-1.208 -1.326,0 -2.504,0.57 -3.486,2.053 -0.412,0.628 -0.736,1.413 -1.129,2.11 -0.471,0.825 -0.982,1.267 -1.875,1.267 -0.815,0 -1.611,-0.334 -2.455,-0.697 l 0.039,-0.187 c 0.069,-0.304 0.187,-0.52 0.471,-0.52 0.128,0 0.256,0.058 0.325,0.078 0.471,0.148 0.814,0.276 1.296,0.276 0.736,0 1.089,-0.433 1.59,-1.493 L -8.866,1.286 C -9.377,1.109 -10.575,1.021 -11.468,1.021 l -0.422,0 0.069,-0.422 c 0.029,-0.177 0.098,-0.324 0.245,-0.393 0.176,-0.088 0.432,-0.098 0.874,-0.098 1.119,0 1.934,0.137 2.405,0.256 1.208,-1.798 2.867,-2.485 4.468,-2.485 1.364,0 2.749,0.501 4.075,1.227 L 0,0 Z" />
        </g>
        <g
           transform="translate(447.7597,682.7307)"
           id="g15970">
          <path
             id="path15972"
             style="fill:#939ca1;fill-opacity:1;fill-rule:nonzero;stroke:none"
             d="M 0,0 -0.235,0.904 C 1.787,1.993 3.633,2.867 6.579,3.152 6.638,2.023 6.559,0.599 7.394,0.599 c 0.765,0 2.434,1.974 4.359,4.448 C 11.93,4.88 12.214,4.703 12.47,4.507 L 11.979,3.869 C 10.103,1.453 8.503,-0.609 7.187,-0.609 5.96,-0.609 5.498,0.835 5.479,1.915 3.604,1.728 1.836,1.1 0,0" />
        </g>
        <g
           transform="translate(473.7398,702.4365)"
           id="g15974">
          <path
             id="path15976"
             style="fill:#939ca1;fill-opacity:1;fill-rule:nonzero;stroke:none"
             d="m 0,0 c -0.766,0 -0.982,0.423 -0.982,1.021 0,1.237 0.776,3.014 1.267,4.026 l -1.189,0 C -1.522,3.849 -3.957,0.01 -5.273,-1.581 l 0.756,-0.814 c 0.707,0.785 1.483,2.12 2.327,3.436 l 0.157,0 c 0,-0.069 -0.009,-0.147 -0.009,-0.216 0,-1.11 0.569,-1.934 1.973,-1.934 0.864,0 2.219,0.432 3.496,0.864 1.06,0.363 2.032,0.736 2.513,0.873 l 0,1.178 C 5.39,1.64 4.271,1.208 3.112,0.805 1.895,0.383 0.697,0 0,0" />
        </g>
        <g
           transform="translate(476.3611,698.8726)"
           id="g15978">
          <path
             id="path15980"
             style="fill:#939ca1;fill-opacity:1;fill-rule:nonzero;stroke:none"
             d="m 0,0 c 1.178,0.5 3.289,1.345 4.507,1.787 l 0,1.198 C 2.062,2.081 -2.229,0.304 -5.155,-1.287 c 0.079,-0.097 0.59,-0.814 0.648,-0.903 1.237,0.511 2.347,0.845 3.348,0.845 1.405,0 2.553,0 4.478,0.452 l 0,0.903 C 2.239,-0.187 1.09,-0.422 0.344,-0.422 c -0.442,0 -0.57,0.059 -0.57,0.206 0,0.088 0.059,0.147 0.226,0.216" />
        </g>
      </g>
    </g>
    <g
       transform="matrix(2.1025538,0,0,-2.1025538,3.2464737,509.99979)"
       id="g15982">
      <path
         id="path15984"
         style="fill:#939ca1;fill-opacity:1;fill-rule:nonzero;stroke:none"
         d="m 0,0 -0.472,-0.904 5.018,0 L 4.173,0 0,0 Z" />
    </g>
    <g
       id="g15986"
       transform="matrix(2.1025538,0,0,-2.1025538,-945.43842,1967.8152)">
      <g
         clip-path="url(#clipPath15990)"
         id="g15988">
        <g
           transform="translate(433.1302,687.9642)"
           id="g15994">
          <path
             id="path15996"
             style="fill:#939ca1;fill-opacity:1;fill-rule:nonzero;stroke:none"
             d="m 0,0 c 0.53,0 0.962,0.177 1.375,0.343 0.392,0.158 0.785,0.315 1.315,0.315 1.257,0 2.808,-0.609 4.173,-1.188 0.079,-0.03 0.167,-0.049 0.255,-0.049 0.217,0 0.384,0.098 0.491,0.304 L 7.786,0.049 C 6.284,0.923 3.888,1.856 2.641,1.856 2.072,1.856 1.659,1.708 1.267,1.552 0.825,1.374 0.442,1.188 0.039,1.188 c -0.991,0 -3.534,0.982 -3.534,1.934 0,1.119 4.045,1.551 4.487,1.551 l 0.402,0.914 c -2.935,0 -6.431,-1.031 -6.431,-2.396 0,-0.393 0.226,-0.589 0.226,-0.952 0,-0.491 -0.226,-0.825 -0.226,-1.375 0,-0.363 0.216,-0.825 0.471,-1.228 0.275,-0.422 0.599,-0.696 0.599,-1.05 0,-0.265 -0.176,-0.579 -0.176,-1.198 0,-1.325 0.756,-2.131 2.228,-3.711 l 0.295,-0.314 c -1.217,-0.472 -3.486,-1.454 -4.016,-1.679 -1.836,-0.766 -2.297,-1.699 -2.297,-3.172 0,-0.569 0,-1.217 0.039,-1.796 l 0.353,0 c 0.737,0 0.825,0.441 0.825,0.863 0,0.285 -0.01,0.609 -0.01,0.963 0.01,0.814 0.04,1.541 1.355,2.13 0.531,0.236 3.132,1.296 5.067,2.121 0.569,0.246 1.099,0.452 1.688,0.452 0.658,0 1.414,-0.285 2.357,-0.845 0.795,-0.471 1.63,-1.109 2.288,-1.845 l 0.834,0.638 c -0.717,0.844 -1.708,1.6 -2.7,2.189 -0.992,0.589 -1.875,0.933 -2.621,0.933 -0.324,0 -0.589,-0.059 -0.815,-0.118 -0.265,-0.069 -0.511,-0.147 -0.825,-0.147 -0.363,0 -0.668,0.088 -1.11,0.599 -0.167,0.186 -1.227,1.394 -1.453,1.747 -0.108,0.167 -0.304,0.501 -0.304,0.894 0,0.167 0.029,0.363 0.128,0.54 0.912,-0.707 2.042,-1.139 3.416,-1.306 l -0.186,0.933 c -1.974,0.52 -4.075,2.258 -4.075,3.377 0,0.236 0.059,0.403 0.148,0.609 C -2.769,0.736 -0.972,0 0,0" />
        </g>
        <g
           transform="translate(447.2593,687.7871)"
           id="g15998">
          <path
             id="path16000"
             style="fill:#939ca1;fill-opacity:1;fill-rule:nonzero;stroke:none"
             d="m 0,0 c 1.237,0.874 2.513,0.972 3.544,0.972 0.619,0 1.345,-0.088 2.111,-0.186 0.619,-0.079 1.178,-0.138 1.846,-0.138 1.345,0 2.7,0.491 3.289,0.747 0.167,-0.207 0.452,-0.482 0.678,-0.678 -0.285,-0.177 -2.091,-1.158 -3.937,-1.158 -0.815,0 -1.591,0.097 -2.259,0.186 -0.589,0.078 -1.227,0.147 -1.846,0.147 -0.677,0 -2.042,-0.196 -2.886,-0.599 L 0,0 Z" />
        </g>
        <g
           transform="translate(465.4921,684.282)"
           id="g16002">
          <path
             id="path16004"
             style="fill:#939ca1;fill-opacity:1;fill-rule:nonzero;stroke:none"
             d="m 0,0 c -1.473,-3.103 -3.712,-5.361 -6.009,-6.667 -1.09,-0.618 -2.072,-1.021 -4.192,-1.021 l -4.586,0 c -1.639,0 -2.67,-0.216 -3.475,-0.422 -0.865,-0.226 -1.414,-0.451 -2.288,-0.451 -1.296,0 -2.494,0.638 -3.073,1.246 l 1.08,0.854 -0.54,0.718 c -0.314,-0.227 -4.153,-3.064 -4.959,-3.702 l -0.049,0.029 c 0.02,0.196 0.02,0.373 0.02,0.55 0,2.16 -1.002,2.681 -2.523,3.289 l -1.031,-0.608 c 2.091,-0.698 2.611,-1.257 2.611,-2.818 0,-1.238 -0.442,-1.728 -1.08,-2.102 -0.658,-0.383 -1.473,-0.559 -2.189,-0.559 -0.305,0 -0.442,-0.059 -0.55,-0.167 -0.118,-0.118 -0.177,-0.295 -0.177,-0.54 l 0,-0.344 0.246,0 c 1.315,0 2.533,0.206 3.868,1.257 l 4.35,3.397 c 0.618,-0.707 2.18,-1.689 4.025,-1.689 1.041,0 1.709,0.256 2.671,0.501 0.746,0.187 1.473,0.354 3.063,0.354 l 4.605,0 c 2.357,0 3.496,0.491 4.752,1.197 2.73,1.532 5.057,4.124 6.373,7.1 C 0.599,-0.383 0.275,-0.186 0,0" />
        </g>
        <g
           transform="translate(458.0988,680.5901)"
           id="g16006">
          <path
             id="path16008"
             style="fill:#939ca1;fill-opacity:1;fill-rule:nonzero;stroke:none"
             d="M 0,0 C 1.188,1.905 2.248,3.594 4.85,4.968 4.575,5.135 4.183,5.39 3.976,5.528 2.965,5.086 1.964,4.203 1.11,3.309 -0.854,1.267 -0.678,0.089 -2.749,-0.707 -3.27,-0.903 -3.908,-1.119 -4.723,-1.306 -5.204,0.177 -6.411,1.65 -7.688,1.65 c -0.884,0 -1.905,-0.461 -3.083,-0.982 -1.384,-0.609 -2.651,-1.306 -3.053,-1.571 l 0.54,-0.727 c 0.412,0.227 1.6,0.816 2.788,1.326 1.031,0.442 1.964,0.805 2.592,0.805 1.011,0 1.669,-1.149 2.033,-2.071 -1.326,-0.315 -3.506,-0.393 -4.163,-0.393 -0.305,0 -0.413,-0.049 -0.521,-0.138 -0.098,-0.088 -0.177,-0.245 -0.226,-0.461 l -0.078,-0.334 0.706,0 c 3.673,0 7.139,0.579 9.367,1.934 0.315,-0.089 0.59,-0.147 0.943,-0.147 1.276,0 2.592,0.697 3.417,1.335 0.294,0.226 0.363,0.433 0.363,0.658 0,0.108 -0.01,0.206 -0.02,0.305 L 3.878,1.571 C 2.7,0.639 1.718,-0.059 0.501,-0.059 0.285,-0.059 0.128,-0.039 0,0" />
        </g>
        <g
           style="fill:#939ca1;fill-opacity:1"
           transform="translate(430.0615,650.2685)"
           id="g16010" />
        <g
           style="fill:#939ca1;fill-opacity:1"
           transform="translate(439.0743,650.1949)"
           id="g16014" />
        <g
           style="fill:#939ca1;fill-opacity:1"
           transform="translate(447.4737,650.1949)"
           id="g16018" />
        <g
           style="fill:#939ca1;fill-opacity:1"
           transform="translate(458.0938,650.3558)"
           id="g16022" />
      </g>
    </g>
  </g>
</svg>
