<?xml version="1.0" encoding="UTF-8" standalone="no"?>
<!-- Created with Inkscape (http://www.inkscape.org/) -->

<svg
   xmlns:dc="http://purl.org/dc/elements/1.1/"
   xmlns:cc="http://creativecommons.org/ns#"
   xmlns:rdf="http://www.w3.org/1999/02/22-rdf-syntax-ns#"
   xmlns:svg="http://www.w3.org/2000/svg"
   xmlns="http://www.w3.org/2000/svg"
   xmlns:sodipodi="http://sodipodi.sourceforge.net/DTD/sodipodi-0.dtd"
   xmlns:inkscape="http://www.inkscape.org/namespaces/inkscape"
   width="251.17778mm"
   height="38.025967mm"
   viewBox="0 0 890.00001 134.73768"
   id="svg2"
   version="1.1"
   inkscape:version="0.91 r13725"
   sodipodi:docname="Disney Logo.svg">
  <defs
     id="defs4">
    <clipPath
       id="clipPath3396"
       clipPathUnits="userSpaceOnUse">
      <path
         inkscape:connector-curvature="0"
         id="path3398"
         d="m 458.683,491.144 -324.083,0 0,-158.629 324.083,0 0,158.629 z" />
    </clipPath>
    <clipPath
       id="clipPath3440"
       clipPathUnits="userSpaceOnUse">
      <path
         inkscape:connector-curvature="0"
         id="path3442"
         d="m 458.683,491.144 -324.083,0 0,-158.629 324.083,0 0,158.629 z" />
    </clipPath>
    <clipPath
       id="clipPath3552"
       clipPathUnits="userSpaceOnUse">
      <path
         inkscape:connector-curvature="0"
         id="path3554"
         d="m 458.683,491.144 -324.083,0 0,-158.629 324.083,0 0,158.629 z" />
    </clipPath>
    <clipPath
       id="clipPath3592"
       clipPathUnits="userSpaceOnUse">
      <path
         inkscape:connector-curvature="0"
         id="path3594"
         d="m 458.683,491.144 -324.083,0 0,-158.629 324.083,0 0,158.629 z" />
    </clipPath>
    <clipPath
       id="clipPath3704"
       clipPathUnits="userSpaceOnUse">
      <path
         inkscape:connector-curvature="0"
         id="path3706"
         d="m 458.683,491.144 -324.083,0 0,-158.629 324.083,0 0,158.629 z" />
    </clipPath>
    <clipPath
       id="clipPath3744"
       clipPathUnits="userSpaceOnUse">
      <path
         inkscape:connector-curvature="0"
         id="path3746"
         d="m 458.683,491.144 -324.083,0 0,-158.629 324.083,0 0,158.629 z" />
    </clipPath>
  </defs>
  <sodipodi:namedview
     id="base"
     pagecolor="#ffffff"
     bordercolor="#666666"
     borderopacity="1.0"
     inkscape:pageopacity="0.0"
     inkscape:pageshadow="2"
     inkscape:zoom="1.1788128"
     inkscape:cx="244.93574"
     inkscape:cy="-80.517075"
     inkscape:document-units="px"
     inkscape:current-layer="layer1"
     showgrid="false"
     fit-margin-top="0"
     fit-margin-left="0"
     fit-margin-right="0"
     fit-margin-bottom="0"
     inkscape:window-width="1366"
     inkscape:window-height="705"
     inkscape:window-x="-8"
     inkscape:window-y="-8"
     inkscape:window-maximized="1" />
  <metadata
     id="metadata7">
    <rdf:RDF>
      <cc:Work
         rdf:about="">
        <dc:format>image/svg+xml</dc:format>
        <dc:type
           rdf:resource="http://purl.org/dc/dcmitype/StillImage" />
        <dc:title></dc:title>
      </cc:Work>
    </rdf:RDF>
  </metadata>
  <g
     inkscape:label="Layer 1"
     inkscape:groupmode="layer"
     id="layer1"
     transform="translate(-166.42593,-139.63095)">
    <g
       id="g4483"
       transform="matrix(2.1969678,0,0,2.1969678,-78.065187,-473.77994)">
      <g
         transform="matrix(1.25,0,0,-1.25,389.62821,311.07898)"
         id="g3352">
        <path
           inkscape:connector-curvature="0"
           id="path3354"
           style="fill:#231f20;fill-opacity:1;fill-rule:nonzero;stroke:none"
           d="m 0,0 c 0,5.75 3.226,8.859 7.538,8.859 3.99,0 5.889,-2.203 6.657,-5.334 L 11.434,2.738 C 10.784,5.008 9.789,6.17 7.515,6.17 4.614,6.17 2.923,3.92 2.923,0.022 c 0,-4.083 1.739,-6.33 4.639,-6.33 2.227,0 3.478,1.113 4.129,3.688 L 14.45,-3.248 C 13.614,-6.658 11.502,-8.953 7.538,-8.953 3.131,-8.953 0,-5.915 0,0" />
      </g>
      <g
         transform="matrix(1.25,0,0,-1.25,409.66571,314.18023)"
         id="g3356">
        <path
           inkscape:connector-curvature="0"
           id="path3358"
           style="fill:#231f20;fill-opacity:1;fill-rule:nonzero;stroke:none"
           d="M 0,0 C 0,4.545 2.995,6.401 6.006,6.401 9,6.401 12.016,4.545 12.016,0 12.016,-4.502 9,-6.402 6.006,-6.402 3.016,-6.402 0,-4.502 0,0 M 9.138,0 C 9.138,2.294 8.166,3.964 6.006,3.964 3.944,3.964 2.878,2.481 2.878,0 c 0,-2.342 0.951,-4.013 3.128,-4.013 2.066,0 3.132,1.485 3.132,4.013" />
      </g>
      <g
         transform="matrix(1.25,0,0,-1.25,427.19571,321.86398)"
         id="g3360">
        <path
           inkscape:connector-curvature="0"
           id="path3362"
           style="fill:#231f20;fill-opacity:1;fill-rule:nonzero;stroke:none"
           d="m 0,0 0,12.314 2.851,0 0,-1.691 c 0.954,1.044 2.344,1.925 4.224,1.925 2.064,0 2.874,-0.812 3.362,-2.018 0.974,1.067 2.437,2.018 4.313,2.018 2.504,0 3.597,-1.509 3.597,-3.712 l 0,-8.836 -2.854,0 0,8.119 c 0,1.367 -0.394,1.992 -1.739,1.992 -1.162,0 -2.087,-0.649 -3.154,-1.6 L 10.6,0 7.747,0 l 0,8.119 c 0,1.367 -0.395,1.992 -1.739,1.992 -1.138,0 -2.088,-0.649 -3.157,-1.6 L 2.851,0 0,0" />
      </g>
      <g
         transform="matrix(1.25,0,0,-1.25,453.41571,327.66273)"
         id="g3364">
        <path
           inkscape:connector-curvature="0"
           id="path3366"
           style="fill:#231f20;fill-opacity:1;fill-rule:nonzero;stroke:none"
           d="m 0,0 0,16.953 2.853,0 0,-1.622 c 0.813,0.975 2.088,1.857 3.92,1.857 2.806,0 4.87,-2.113 4.87,-6.38 0,-4.269 -2.112,-6.355 -5.265,-6.355 -1.32,0 -2.62,0.535 -3.525,1.553 L 2.853,0 0,0 m 8.792,10.786 c 0,2.597 -1.114,3.964 -2.947,3.964 -1.183,0 -2.319,-0.742 -2.992,-1.551 l 0,-4.941 C 3.619,7.261 4.731,6.727 5.75,6.727 c 2.159,0 3.042,1.321 3.042,4.059" />
      </g>
      <g
         transform="matrix(1.25,0,0,-1.25,469.54821,318.15398)"
         id="g3368">
        <path
           inkscape:connector-curvature="0"
           id="path3370"
           style="fill:#231f20;fill-opacity:1;fill-rule:nonzero;stroke:none"
           d="m 0,0 c 0,2.667 2.272,4.455 8.024,5.105 l 0,0.368 c 0,1.232 -0.648,1.764 -2.018,1.764 -1.715,0 -3.108,-0.836 -4.15,-1.668 L 0.464,7.355 c 1.322,1.206 3.387,2.226 5.936,2.226 3.294,0 4.432,-1.58 4.432,-4.453 l 0,-5.08 c 0,-1.484 0.093,-2.389 0.347,-3.015 l -2.875,0 C 8.141,-2.458 8.024,-2.086 8.024,-1.391 6.773,-2.667 5.31,-3.153 3.478,-3.153 1.486,-3.153 0,-2.039 0,0 m 8.024,0.466 0,2.714 C 4.614,2.716 2.806,1.88 2.806,0.534 c 0,-0.973 0.672,-1.482 1.717,-1.482 1.459,0 2.599,0.554 3.501,1.414" />
      </g>
      <g
         transform="matrix(1.25,0,0,-1.25,486.30321,321.86398)"
         id="g3372">
        <path
           inkscape:connector-curvature="0"
           id="path3374"
           style="fill:#231f20;fill-opacity:1;fill-rule:nonzero;stroke:none"
           d="m 0,0 0,12.314 2.854,0 0,-1.969 c 0.928,1.066 2.365,2.203 4.407,2.203 2.248,0 3.641,-1.159 3.641,-3.595 l 0,-8.953 -2.852,0 0,8.14 c 0,1.346 -0.557,2.041 -1.856,2.041 -1.253,0 -2.298,-0.625 -3.34,-1.601 L 2.854,0 0,0" />
      </g>
      <g
         transform="matrix(1.25,0,0,-1.25,500.79321,327.37148)"
         id="g3376">
        <path
           inkscape:connector-curvature="0"
           id="path3378"
           style="fill:#231f20;fill-opacity:1;fill-rule:nonzero;stroke:none"
           d="m 0,0 0.648,2.295 c 0.349,-0.092 1.09,-0.256 2.088,-0.256 1.022,0 1.554,0.397 1.95,1.394 l 0.346,0.904 -4.731,12.383 2.968,0 3.179,-8.973 0.045,0 3.155,8.973 2.829,0 L 7.235,3.061 C 6.424,0.905 5.358,-0.372 2.922,-0.372 1.461,-0.372 0.603,-0.163 0,0" />
      </g>
      <g
         transform="matrix(1.25,0,0,-1.25,117.89446,321.82898)"
         id="g3380">
        <path
           inkscape:connector-curvature="0"
           id="path3382"
           style="fill:#231f20;fill-opacity:1;fill-rule:nonzero;stroke:none"
           d="m 0,0 0,14.472 -5.287,0 0,2.692 13.475,0 0,-2.692 -5.289,0 L 2.899,0 0,0" />
      </g>
      <g
         transform="matrix(1.25,0,0,-1.25,130.27071,321.82898)"
         id="g3384">
        <path
           inkscape:connector-curvature="0"
           id="path3386"
           style="fill:#231f20;fill-opacity:1;fill-rule:nonzero;stroke:none"
           d="m 0,0 0,17.164 2.877,0 0,-6.517 c 0.787,0.833 2.272,1.9 4.5,1.9 2.156,0 3.548,-1.277 3.548,-3.709 l 0,-8.838 -2.877,0 0,8.119 c 0,1.365 -0.579,1.993 -1.832,1.993 -1.251,0 -2.296,-0.649 -3.339,-1.6 L 2.877,0 0,0" />
      </g>
      <g
         transform="matrix(1.25,0,0,-1.25,146.35321,314.14648)"
         id="g3388">
        <path
           inkscape:connector-curvature="0"
           id="path3390"
           style="fill:#231f20;fill-opacity:1;fill-rule:nonzero;stroke:none"
           d="m 0,0 c 0,4.686 3.317,6.401 5.869,6.401 2.76,0 5.403,-1.645 5.403,-6.654 l 0,-0.675 -8.419,0 c 0.116,-2.225 1.484,-3.2 3.295,-3.2 1.6,0 2.528,0.533 3.454,1.439 l 1.509,-1.484 C 9.834,-5.591 8.141,-6.402 5.937,-6.402 2.853,-6.402 0,-4.524 0,0 M 8.652,1.206 C 8.488,3.086 7.562,4.083 5.845,4.083 4.453,4.083 3.178,3.295 2.899,1.206 l 5.753,0" />
      </g>
      <g
         transform="matrix(1.25,0,0,-1.25,300.37571,295.60773)"
         id="g3400">
        <path
           inkscape:connector-curvature="0"
           id="path3402"
           style="fill:#231f20;fill-opacity:1;fill-rule:nonzero;stroke:none"
           d="m 0,0 c 0,0 0.424,0.636 0.78,1.12 0.649,0.88 1.822,2.1 2.704,2.856 0.272,0.23 0.589,0.493 0.589,0.493 0,0 -0.499,-0.052 -0.78,-0.11 C 2.623,4.228 1.64,3.575 1.148,3.153 0.338,2.461 -0.552,1.333 -0.151,0.333 -0.091,0.189 0,0 0,0 m 4.504,-1.205 c 1.28,0.086 2.48,0.457 3.595,1.074 1.095,0.612 2.704,1.806 2.54,3.212 C 10.586,3.534 10.29,3.878 9.914,4.039 9.424,4.252 9.17,4.214 8.545,4.031 8.093,3.897 7.89,3.817 7.463,3.572 6.205,2.842 4.426,1.281 3.459,0.034 3.235,-0.258 3.009,-0.587 2.834,-0.811 2.72,-0.948 2.635,-1.077 2.645,-1.112 2.683,-1.255 4.003,-1.241 4.504,-1.205 M 1.243,-3.6 C 1.112,-3.737 0.973,-4.077 0.827,-4.322 0.75,-4.452 0.606,-4.62 0.512,-4.686 c -0.333,-0.245 -0.614,-0.256 -0.938,0.027 -0.45,0.396 -0.71,1.015 -0.729,1.615 -0.01,0.263 0.033,0.55 -0.014,0.774 -0.083,0.372 -0.457,0.754 -0.657,1.111 -0.236,0.423 -0.427,1.154 -0.45,1.626 -0.083,1.474 0.695,2.83 1.705,3.902 1.016,1.083 2.345,1.983 3.792,2.594 1.366,0.578 3.37,0.97 4.871,0.449 C 8.579,7.244 9.261,6.828 9.603,6.395 9.675,6.303 9.735,6.203 9.81,6.156 9.875,6.114 10.05,6.097 10.189,6.072 10.669,5.989 11.359,5.627 11.64,5.386 12.203,4.897 12.515,4.43 12.658,3.753 12.946,2.392 12.162,0.897 11.269,-0.011 9.738,-1.578 8.227,-2.677 6.269,-3.445 5.411,-3.781 4.072,-4.094 3.096,-4.006 2.794,-3.981 2.481,-3.902 2.187,-3.88 2.038,-3.867 1.487,-3.728 1.429,-3.684 1.356,-3.631 1.263,-3.581 1.243,-3.6 M -45.44,-7.622 c 0.813,0.05 1.317,0.089 1.952,0.364 0.351,0.149 0.757,0.491 0.557,0.899 -0.121,0.25 -0.551,0.337 -0.802,0.318 -0.851,-0.057 -1.464,-0.683 -1.755,-1.52 -0.011,-0.03 -0.008,-0.061 0.048,-0.061 m 3.558,2.103 c 0.474,-0.593 0.688,-1.289 0.741,-2.053 0.053,-0.77 -0.193,-1.511 -0.622,-2.098 -0.736,-1 -1.964,-1.499 -3.196,-1.591 -0.169,-0.011 -1.174,-0.041 -1.432,0.039 -0.047,0.017 -0.076,0.035 -0.102,0.028 -0.029,-0.003 -0.198,-0.697 -0.229,-0.939 -0.11,-0.851 -0.244,-1.453 -0.342,-2.123 -0.082,-0.532 -0.141,-1.103 -0.188,-1.671 -0.278,-3.31 -0.182,-4.945 0.092,-8.184 0.019,-0.198 0.029,-0.423 0,-0.559 -0.074,-0.389 -0.31,-0.66 -0.69,-0.758 -1.142,-0.3 -2.234,0.83 -2.794,1.734 -1.308,2.113 -0.881,6.431 -0.504,8.564 0.154,0.883 0.556,2.844 0.835,3.55 0.148,0.38 0.385,1.127 0.367,1.163 -0.016,0.033 -0.614,0.261 -1.162,0.472 -0.206,0.075 -0.897,0.434 -1.193,0.618 -0.609,0.382 -1.026,0.693 -1.447,1.168 -0.128,0.148 -0.554,0.781 -0.617,0.922 -0.34,0.774 -0.36,1.448 -0.058,2.271 0.077,0.211 0.501,1.1 0.783,1.072 0.406,-0.036 0.317,-0.708 0.424,-1.056 0.035,-0.12 0.149,-0.32 0.239,-0.428 0.562,-0.663 2.449,-1.397 3.222,-1.628 0.111,-0.035 1.32,-0.403 1.497,-0.322 0.047,0.022 0.277,0.431 0.424,0.678 0.079,0.139 0.168,0.242 0.265,0.347 0.735,0.791 1.821,1.54 2.902,1.762 0.476,0.096 1.409,0.016 1.881,-0.253 0.107,-0.061 0.459,-0.2 0.904,-0.725 m -11.422,-9.384 c 0.034,-0.002 0.086,-0.019 0.131,-0.038 0.555,-0.243 0.555,-1.234 0.421,-1.7 -0.36,-1.226 -1.523,-2.492 -2.451,-3.122 -0.554,-0.37 -1.688,-0.896 -2.499,-1.051 -1.269,-0.244 -2.393,0.092 -3.072,1.119 -0.614,0.929 -0.885,2.078 -0.934,3.158 -0.14,3.101 0.838,7.631 2.042,10.22 0.162,0.347 0.958,1.965 1.698,2.226 0.736,0.26 1.06,-0.603 1.133,-1.248 0.094,-0.83 -0.171,-1.93 -0.381,-2.82 -0.37,-1.557 -0.901,-3.991 -1.027,-4.689 -0.133,-0.738 -0.441,-2.318 -0.33,-3.124 0.057,-0.428 0.138,-0.642 0.463,-0.616 0.148,0.013 2.231,0.971 3.368,1.396 0.426,0.158 0.956,0.329 1.438,0.289 m -15.406,1.43 c 0,0 0.237,-0.004 0.481,0 0.777,0.01 2.08,0.153 2.08,0.153 0,0 -0.146,1.147 -0.264,1.879 -0.08,0.489 -0.144,0.791 -0.249,1.178 -0.048,0.172 -0.167,0.663 -0.292,0.855 -0.022,0.039 -0.054,0.08 -0.054,0.08 0,0 -0.629,-1.214 -0.981,-2.06 -0.28,-0.671 -0.42,-1.171 -0.616,-1.578 -0.047,-0.095 -0.099,-0.225 -0.105,-0.337 -0.006,-0.078 0,-0.17 0,-0.17 m -4.168,-0.132 c 0,0 0.373,0.838 0.663,1.472 0.305,0.666 1.846,3.761 2.481,4.636 0.704,0.978 2.05,2.824 2.061,2.88 0.029,0.203 0.073,0.564 0.262,0.853 0.147,0.23 0.51,0.327 0.863,0.35 0.391,0.023 0.796,-0.266 0.972,-0.588 0.339,-0.612 0.917,-2.354 1.042,-2.77 0.675,-2.319 1.404,-6.65 1.643,-8.875 0.062,-0.584 0.256,-3.626 0.271,-4.311 0.014,-0.481 0,-1.279 -0.276,-1.673 -0.102,-0.15 -0.298,-0.275 -0.487,-0.272 -0.255,0.009 -0.769,0.366 -0.994,0.576 -0.623,0.588 -1.038,1.185 -1.171,1.916 -0.114,0.636 -0.275,2.461 -0.275,2.461 l -2.716,-0.109 -1.513,-0.025 c 0,0 -0.143,-0.353 -0.26,-0.647 -0.253,-0.63 -0.48,-1.26 -0.578,-1.614 -0.198,-0.711 -0.579,-2.121 -0.67,-2.341 -0.191,-0.462 -0.359,-0.731 -0.808,-0.791 -0.498,-0.065 -0.84,-0.101 -1.2,0.094 -0.678,0.372 -0.987,1.158 -1.102,1.969 -0.202,1.381 0.357,2.495 0.931,4.133 0.241,0.689 -0.091,0.918 -0.663,1.814 -0.074,0.115 -0.15,0.236 -0.164,0.328 -0.02,0.092 0.068,0.331 0.193,0.43 0.039,0.032 0.05,0.036 0.121,0.039 l 1.374,0.065 m -15.51,8.942 c 0,0 -0.035,0.877 -0.108,1.366 -0.061,0.414 -0.144,0.725 -0.341,1.041 -0.216,0.347 -0.381,0.565 -0.722,0.617 -0.418,0.061 -0.649,-0.224 -0.91,-0.634 -0.347,-0.557 -0.693,-1.59 -0.897,-2.243 -0.295,-0.928 -0.42,-1.498 -0.578,-2.554 -0.261,-1.732 -0.525,-4.678 -0.244,-6.682 0.052,-0.345 0.138,-0.85 0.138,-0.85 0,0 0.418,0.469 0.723,0.797 0.13,0.142 0.75,1.069 0.805,1.166 0.107,0.186 0.394,0.676 0.434,0.776 0.061,0.107 0.508,1.066 0.586,1.291 0.15,0.43 0.368,1.092 0.536,1.62 0.393,1.216 0.323,1.666 0.578,3.016 0.029,0.155 0.054,1.273 0.026,1.273 -0.012,0.004 -0.026,0 -0.026,0 m -2.966,-12.848 c 0,0 0.165,-0.289 0.295,-0.506 0.723,-1.205 1.878,-1.895 3.273,-1.964 1.429,-0.072 3.264,0.756 4.311,1.484 2.991,2.08 4.565,5.83 5.423,9.424 1.011,4.214 1.057,8.659 -0.148,12.737 -0.699,2.367 -2.059,5.33 -3.744,7.102 -0.502,0.526 -1.271,1.243 -1.49,1.537 -0.228,0.303 -0.283,0.558 0.065,0.761 0.367,0.211 1.171,-0.227 1.572,-0.469 1.967,-1.195 3.253,-2.386 4.418,-4.097 0.294,-0.432 1.475,-2.375 1.691,-2.781 1.322,-2.495 2,-4.669 2.363,-7.423 0.458,-3.505 0.165,-7.485 -1.049,-10.999 -0.53,-1.542 -1.348,-3.129 -2.2,-4.467 -0.202,-0.314 -1.444,-1.983 -1.597,-2.147 -0.427,-0.45 -1.482,-1.364 -1.975,-1.761 -2.466,-1.979 -5.13,-3.276 -8.054,-2.918 -1.608,0.198 -2.928,0.731 -4.216,1.778 -0.494,0.406 -1.328,1.251 -1.662,1.853 -0.217,0.386 -0.487,0.855 -0.522,0.861 -0.038,0.009 -0.181,-0.088 -0.337,-0.197 -0.136,-0.094 -0.715,-0.363 -1.022,-0.477 -2.006,-0.748 -4.25,-0.572 -6.093,0.624 -1.337,0.865 -2.468,2.509 -2.968,4 -0.737,2.211 -0.796,4.501 -0.496,6.853 0.513,3.991 1.95,7.772 4.092,11.119 1.352,2.109 3.105,4.192 5.197,5.686 0.235,0.17 1.511,0.912 1.772,1.032 0.472,0.222 1.1,0.427 1.463,0.039 0.189,-0.201 0.183,-0.364 0.043,-0.629 -0.222,-0.411 -0.79,-0.969 -1.104,-1.303 -0.272,-0.294 -1.813,-2.183 -2.131,-2.625 -0.349,-0.472 -1.917,-2.821 -2.123,-3.182 -1.978,-3.425 -3.549,-8.851 -3.397,-13.059 0.032,-0.869 0.16,-2.122 0.355,-2.938 0.265,-1.1 0.92,-2.589 1.903,-3.284 1.035,-0.734 1.994,-0.692 3.233,-0.2 0.329,0.133 0.797,0.344 0.797,0.344 0,0 -0.361,0.925 -0.597,1.62 -0.649,1.931 -0.91,5.011 -0.671,7.131 0.197,1.738 0.585,3.069 1.371,4.449 0.626,1.106 1.469,2.191 2.522,3.089 1.015,0.866 2.637,1.62 4.064,1.658 1.186,0.028 2.414,-0.488 3.037,-1.566 1.082,-1.875 1.151,-4.834 0.846,-6.784 -0.458,-2.949 -1.985,-5.718 -4.188,-7.594 -0.791,-0.672 -2.322,-1.811 -2.322,-1.811 M 2.992,-6.62 c 0.059,-0.011 0.152,-0.038 0.231,-0.066 0.686,-0.262 0.968,-0.898 1.137,-1.594 0.392,-1.62 0.56,-5.201 0.624,-6.606 0.048,-1.05 0.074,-2.089 0.118,-3.128 0.037,-0.881 0.107,-2.053 -0.075,-2.88 -0.067,-0.297 -0.265,-0.639 -0.55,-0.818 -0.327,-0.208 -1.068,-0.224 -1.475,-0.14 -1.005,0.208 -1.332,0.854 -1.474,1.847 -0.341,2.371 -0.178,7.024 0.024,8.988 0.065,0.645 0.311,2.723 0.65,3.593 0.114,0.296 0.361,0.888 0.79,0.804 m -30.952,-3.558 c 0,0 -1.488,-0.105 -2.51,-0.219 -1.303,-0.139 -3.75,-0.562 -5.16,-1.069 -0.425,-0.148 -1.286,-0.509 -1.361,-0.943 -0.076,-0.454 0.202,-0.805 0.515,-1.172 0.18,-0.211 1.2,-1.192 1.485,-1.431 1.199,-0.999 3.629,-2.544 5.422,-3.294 0.612,-0.255 1.63,-0.619 1.63,-0.619 0,0 -0.076,2.897 -0.061,5.75 0.006,1.508 0.04,2.997 0.04,2.997 m 27.261,-1.153 c 0.086,-0.778 -0.116,-2.25 -0.149,-2.444 -0.064,-0.447 -0.402,-1.478 -0.456,-1.605 -0.273,-0.625 -0.54,-1.142 -0.826,-1.653 -0.488,-0.878 -1.646,-2.269 -2.336,-2.864 -2.558,-2.212 -6.52,-3.472 -9.92,-3.887 -2.305,-0.279 -4.955,-0.236 -7.4,0.215 -0.84,0.155 -2.09,0.441 -2.09,0.441 0,0 0.003,-0.5 -0.038,-0.853 -0.019,-0.158 -0.141,-0.582 -0.208,-0.719 -0.179,-0.367 -0.47,-0.556 -0.893,-0.636 -0.512,-0.098 -1.055,-0.127 -1.529,0.073 -0.776,0.329 -1.056,1.057 -1.19,1.891 -0.11,0.672 -0.225,1.839 -0.225,1.839 0,0 -0.58,0.274 -1.065,0.516 -1.488,0.734 -2.903,1.62 -4.138,2.536 -0.342,0.253 -1.814,1.487 -2.14,1.795 -0.911,0.861 -1.73,1.723 -2.354,2.827 -0.485,0.862 -0.624,1.629 -0.256,2.542 0.51,1.273 2.335,2.234 3.585,2.781 0.919,0.405 3.77,1.336 4.956,1.508 0.559,0.08 1.427,0.234 1.48,0.27 0.022,0.016 0.038,0.03 0.053,0.049 0.027,0.039 0.073,1.301 0.064,1.761 -0.01,0.454 0.336,3.431 0.447,4.06 0.06,0.343 0.318,1.654 0.582,1.997 0.171,0.232 0.476,0.216 0.724,0.061 1.359,-0.843 1.771,-3.775 1.872,-5.267 0.061,-0.908 0.091,-2.275 0.091,-2.275 0,0 1.559,0.045 2.519,0.02 0.931,-0.023 1.958,-0.171 2.926,-0.325 1.239,-0.196 3.653,-0.723 5.037,-1.426 1.141,-0.577 2.207,-1.552 2.552,-2.583 0.322,-0.945 0.273,-1.597 -0.216,-2.45 -0.549,-0.964 -1.59,-1.678 -2.645,-1.737 -0.315,-0.021 -1.496,0.137 -1.859,0.418 -0.144,0.114 -0.136,0.316 -0.032,0.453 0.039,0.05 0.59,0.339 0.917,0.513 0.163,0.089 0.299,0.184 0.425,0.3 0.272,0.241 0.515,0.503 0.488,0.809 -0.038,0.4 -0.459,0.647 -0.863,0.805 -1.89,0.75 -5.664,1.375 -7.49,1.483 -0.714,0.042 -1.728,0.078 -1.728,0.078 l 0.214,-10.072 c 0,0 0.84,-0.161 1.501,-0.269 0.381,-0.056 1.989,-0.201 2.416,-0.212 3.255,-0.086 6.888,0.204 9.875,1.617 1.311,0.617 2.514,1.384 3.424,2.423 1.202,1.379 1.831,3.261 1.664,5.227 -0.183,2.152 -1.696,4.7 -2.902,6.253 -3.191,4.105 -8.66,7.478 -13.47,9.456 -4.913,2.019 -9.767,3.183 -14.982,3.377 -1.343,0.048 -4.275,-0.02 -5.754,-0.43 -0.214,-0.059 -0.426,-0.131 -0.623,-0.173 -0.156,-0.038 -0.398,-0.141 -0.466,-0.194 -0.036,-0.033 -0.075,-0.072 -0.075,-0.072 0,0 0.092,-0.05 0.179,-0.089 0.157,-0.069 0.818,-0.108 1.16,-0.17 0.304,-0.058 0.625,-0.221 0.749,-0.446 0.12,-0.212 0.137,-0.379 -0.008,-0.556 -0.336,-0.411 -1.6,-0.339 -2.155,-0.253 -0.578,0.094 -1.297,0.269 -1.43,0.773 -0.152,0.593 0.127,1.174 0.432,1.712 0.612,1.075 1.486,1.635 2.77,1.984 1.82,0.5 4.119,0.851 5.839,0.917 3.893,0.145 7.576,-0.533 11.346,-1.68 2.158,-0.651 4.986,-1.746 7.053,-2.743 1.482,-0.714 3.822,-2.032 5.136,-2.893 0.414,-0.273 2.839,-2.054 3.215,-2.367 0.786,-0.642 1.815,-1.565 2.557,-2.304 1.44,-1.427 3.231,-3.613 4.103,-5.347 0.207,-0.418 0.371,-0.827 0.639,-1.308 0.093,-0.164 0.492,-1.152 0.558,-1.438 0.065,-0.282 0.161,-0.697 0.175,-0.712 0.02,-0.153 0.202,-0.999 0.188,-1.328 z m 16.77,-0.732 c 0.073,-0.007 0.091,-0.01 0.158,-0.02 1.192,-0.162 2.36,-0.376 3.253,-0.776 0.829,-0.368 1.317,-0.83 1.76,-1.657 0.675,-1.253 0.72,-3.006 0.11,-4.334 -0.457,-0.987 -1.457,-1.816 -2.369,-2.256 -0.951,-0.46 -1.882,-0.678 -2.954,-0.8 -1.87,-0.205 -3.896,0.181 -5.582,0.997 -0.997,0.487 -2.215,1.325 -2.83,2.406 -0.452,0.794 -0.438,1.823 0.113,2.575 0.875,1.198 2.75,1.462 4.165,1.412 1.078,-0.04 3.016,-0.375 4.041,-0.737 0.285,-0.103 1.33,-0.511 1.512,-0.695 0.128,-0.132 0.213,-0.319 0.155,-0.496 -0.236,-0.715 -1.971,-1.092 -2.472,-1.167 -1.345,-0.205 -2.041,0.302 -3.568,0.905 -0.379,0.148 -0.884,0.312 -1.272,0.348 -0.692,0.066 -1.529,-0.125 -1.66,-0.884 -0.068,-0.391 0.39,-0.755 0.739,-0.906 0.819,-0.355 1.485,-0.48 2.293,-0.493 2.379,-0.036 5.054,0.355 7.003,1.735 0.269,0.189 0.529,0.469 0.533,0.82 0,0.045 -0.064,0.423 -0.186,0.462 -0.018,0.008 -0.037,-10e-4 -0.051,0.002 -0.045,0.013 -0.12,0.136 -0.183,0.217 -0.14,0.171 -0.705,0.414 -0.816,0.461 -1.312,0.547 -3.736,0.813 -4.987,0.916 -1.31,0.112 -3.371,0.286 -3.867,0.358 -0.509,0.072 -1.063,0.173 -1.506,0.372 -0.441,0.2 -0.875,0.648 -1.005,1.143 -0.228,0.894 0.065,1.992 0.561,2.708 1.302,1.872 4.348,2.581 6.627,2.863 2.205,0.275 5.769,0.272 7.934,-0.879 0.335,-0.178 0.507,-0.345 0.435,-0.703 -0.14,-0.671 -0.648,-1.103 -1.257,-1.293 -0.64,-0.204 -1.967,-0.283 -2.549,-0.319 -2.611,-0.147 -5.766,-0.07 -8.251,-0.749 -0.195,-0.056 -0.531,-0.143 -0.642,-0.267 -0.389,-0.422 0.723,-0.542 0.962,-0.594 0.07,-0.014 0.085,-0.017 0.158,-0.024 l 5.495,-0.651 m 8.145,-9.765 c -1.054,0.387 -1.293,2.089 -1.342,2.95 -0.167,2.803 0.574,6.703 1.515,9.33 0.269,0.748 0.656,1.97 1.493,1.901 0.576,-0.051 0.987,-0.495 1.31,-0.951 0.826,-1.165 1.912,-2.744 2.632,-3.843 0.805,-1.232 1.578,-2.473 2.338,-3.596 0.093,-0.136 0.181,-0.268 0.283,-0.352 0.138,-0.111 0.262,-0.117 0.318,-0.014 0.026,0.04 -0.024,1.456 -0.059,1.74 -0.059,0.452 -0.086,0.818 -0.137,1.208 -0.14,1.133 -0.501,2.727 -0.784,3.805 -0.312,1.206 -0.693,2.463 -0.978,3.63 -0.091,0.379 -0.176,0.762 -0.173,1.123 0.003,0.522 0.338,0.811 0.882,0.616 1.072,-0.378 2.493,-2.705 2.907,-3.513 0.141,-0.273 0.699,-1.661 0.824,-2.05 0.445,-1.333 0.714,-2.597 0.837,-4.05 0.118,-1.412 0.019,-3.469 -0.578,-4.861 -0.219,-0.512 -0.669,-1.201 -1.043,-1.548 -0.587,-0.544 -1.757,-0.969 -2.563,-0.509 -0.882,0.5 -2.331,3.01 -2.578,3.439 -0.841,1.468 -2.288,4.339 -2.512,4.661 -0.049,0.071 -0.113,0.139 -0.225,0.173 -0.085,0.025 -0.119,-0.152 -0.141,-0.267 -0.144,-0.836 -0.243,-4.746 -0.245,-4.855 -0.024,-0.658 -0.056,-2.272 -0.246,-3.067 -0.124,-0.519 -0.25,-0.945 -0.727,-1.163 -0.339,-0.153 -0.597,-0.089 -1.008,0.063 m 14.53,0.25 c -0.114,0.087 -0.298,0.275 -0.432,0.426 -0.021,0.021 -0.4,0.589 -0.475,0.764 -0.066,0.151 -0.116,0.26 -0.164,0.386 -0.345,0.891 -0.336,1.768 -0.145,2.725 0.177,0.893 0.345,0.932 0.803,2.158 0.029,0.067 0.043,0.125 0.053,0.199 0.019,0.168 -0.253,1.298 -0.269,1.661 -0.019,0.554 0.411,0.947 1.131,1.023 0.066,0.006 0.115,0.005 0.163,0.019 0.287,0.07 0.471,0.62 0.628,1.061 0.219,0.62 0.561,1.565 0.561,1.565 0,0 -0.91,0.21 -1.397,0.394 -0.544,0.205 -0.955,0.47 -1.201,0.969 -0.295,0.584 -0.101,0.908 0.509,1.097 0.224,0.072 1.99,0.411 2.548,0.49 0.696,0.102 1.351,0.189 2.013,0.271 0.576,0.07 3.218,0.376 4.059,0.354 1.282,-0.037 2.114,-0.565 2.863,-1.65 0.403,-0.579 0.678,-1.267 0.07,-1.64 -0.934,-0.567 -3.96,-0.61 -4.515,-0.616 -0.883,-0.009 -2.104,0.006 -2.104,0.006 l -0.616,-2.059 c 0,0 2.168,0.023 3.386,0.028 0.296,0 0.592,-0.016 0.758,-0.051 0.622,-0.138 0.837,-0.616 0.862,-1.305 0.034,-0.806 -0.118,-1.177 -0.76,-1.285 -0.332,-0.053 -4.056,-0.075 -4.561,-0.134 -0.315,-0.034 -0.648,-0.084 -0.648,-0.084 0,0 -0.269,-0.702 -0.503,-1.411 -0.236,-0.739 -0.438,-1.492 -0.438,-1.492 0,0 0.189,-0.008 0.346,-0.008 0.262,-0.002 0.528,0.036 0.736,0.072 1.136,0.208 2.825,0.458 4.211,0.676 0.745,0.119 1.12,0.172 1.512,-0.322 0.339,-0.437 0.515,-0.803 0.539,-1.331 0.021,-0.497 -0.358,-0.826 -0.821,-1.18 -1.465,-1.12 -3.969,-2.334 -5.835,-2.542 -0.862,-0.097 -1.072,-10e-4 -1.827,0.196 -0.144,0.037 -0.666,0.281 -0.661,0.307 0,0 -0.283,0.188 -0.379,0.263 z M 62.29,-11.23 c -0.96,-0.804 -2.2,-2.443 -2.792,-3.294 -0.791,-1.128 -1.535,-2.42 -2.247,-3.421 -0.153,-0.225 -0.612,-1.03 -0.596,-1.057 0.032,-0.057 0.494,-0.039 0.969,0.041 1.011,0.17 2.386,0.88 3.12,1.466 1.119,0.897 1.898,2.129 2.266,3.57 0.163,0.655 0.246,2.028 -0.218,2.639 -0.091,0.117 -0.323,0.209 -0.502,0.056 m -7.624,-11.772 c 0,0 -0.304,-0.892 -0.527,-1.592 -0.385,-1.208 -1.232,-4.461 -1.428,-5.472 -0.295,-1.5 -1.135,-5.431 -1.178,-5.515 -0.059,-0.114 -0.098,-0.15 -0.24,-0.241 -0.346,-0.203 -0.485,-0.136 -0.904,0.088 -0.544,0.286 -1.022,0.578 -1.43,1.117 -0.82,1.065 -0.624,3.069 -0.464,4.245 0.563,4.113 1.132,5.922 2.697,10.016 0.026,0.07 0.026,0.086 -0.006,0.148 -0.488,1.039 -0.751,2.294 -0.751,3.308 0.004,3.209 1.848,6.384 3.916,8.934 0.156,0.194 1.171,1.41 1.632,1.386 0.462,-0.022 0.537,-0.561 0.468,-1.011 -0.232,-1.482 -1.275,-2.992 -1.988,-4.242 -0.802,-1.397 -0.976,-1.972 -1.368,-3.253 -0.063,-0.2 -0.22,-1.136 -0.213,-1.256 0.016,-0.344 0.091,-0.778 0.091,-0.778 0,0 1.304,1.826 2.165,2.953 0.47,0.619 0.808,1.028 1.2,1.469 0.397,0.448 1.926,2.037 2.366,2.456 0.925,0.883 1.335,1.25 2.335,1.769 0.793,0.41 1.505,0.512 2.278,0.001 1.226,-0.805 1.76,-2.508 1.898,-3.889 0.161,-1.65 -0.176,-3.506 -0.904,-4.919 -0.863,-1.686 -2.042,-2.9 -3.645,-3.962 -1.639,-1.086 -3.562,-1.825 -5.448,-1.781 -0.255,0.006 -0.552,0.021 -0.552,0.021" />
      </g>
    </g>
  </g>
</svg>
