<?xml version="1.0" encoding="utf-8"?>
<!-- Generator: Adobe Illustrator 24.1.3, SVG Export Plug-In . SVG Version: 6.00 Build 0)  -->
<svg version="1.1" id="Layer_1" xmlns="http://www.w3.org/2000/svg" xmlns:xlink="http://www.w3.org/1999/xlink" x="0px" y="0px"
	 viewBox="0 0 666 107.1" style="enable-background:new 0 0 666 107.1;" xml:space="preserve">
<style type="text/css">
	.st0{clip-path:url(#SVGID_2_);fill:#120F0D;}
	.st1{fill:#120F0D;}
	.st2{clip-path:url(#SVGID_4_);fill:#120F0D;}
</style>
<g>
	<defs>
		<rect id="SVGID_1_" width="666" height="107.1"/>
	</defs>
	<clipPath id="SVGID_2_">
		<use xlink:href="#SVGID_1_"  style="overflow:visible;"/>
	</clipPath>
	<path class="st0" d="M347.89,8.24c0,0-6.4,2.55-13.84,10.75c-7.47,8.23-11.78,17.43-8.57,19.87c1.23,0.93,4.07,1.09,9.23-3.55
		c4.03-3.61,8.13-8.35,10.91-15.13C348.95,12.06,347.89,8.33,347.89,8.24 M388.62,23c-8.27-4.24-14.31-9.42-20.6-12.65
		c-6-3.08-9.88-4.37-14.73-3.72c-0.8,0.11-2,0.5-2,0.5s2.5,8.53-7.44,22.87c-10.07,14.52-19.2,14.44-21.8,10.43
		c-2.72-4.21,0.79-12.8,6.65-20.44c6.14-7.99,16.93-14.62,16.93-14.62s-3.44-2.1-11.89,2.69c-8.23,4.65-22.44,15.75-35.58,34.47
		c-13.13,18.72-15.77,29.02-17.66,37.13c-1.9,8.11-0.17,16.79,8.82,16.79c9,0.01,19.46-13.71,22.41-18.48
		c5.49-8.88,9.07-22.5,1.6-20.63c-3.68,0.92-6.66,5-8.54,8.92c-1.93,4.03-2.71,7.88-2.71,7.88s-3.11,1.11-7.29,4.24
		c-4.18,3.12-6.91,6.11-6.91,6.11s0.03-6.48,5.2-16.97c5.17-10.49,14.65-15.28,20.02-15.73c4.84-0.39,11.14,3.72,5.8,18.89
		c-5.33,15.17-21.08,33.57-37.63,33.8c-15.27,0.21-25.26-19.28-4.01-53.27c23.51-37.6,51.11-49.13,60.07-50.41
		c8.96-1.28,11.87,2.67,11.87,2.67s7.51-3.46,17.03-2.81c10.94,0.74,19.4,8.48,30.56,13.92C393.89,17.37,391.12,20.27,388.62,23
		 M437.76,10.35c-7.58,4.86-18.07,9.27-28.15,8.3c-2.55,2.64-5.28,5.69-8.02,9.02c17.48,3.46,32.79-7.37,40.93-16.59
		c5.09-5.75,7.6-10.89,7.6-10.89S445.26,5.53,437.76,10.35 M414.49,59.59c0.22-0.39,0.32-0.73,0.32-0.73s-0.2-1.47-1.6-1.53
		c-1.66-0.08-3.94,0.24-9.89,6.83c-5.93,6.56-9.53,12.26-12.66,17.96c-3.41,6.23-4.79,10.87-2.83,12.07
		c0.55,0.34,1.38,0.38,2.06,0.21c1.33-0.32,2.83-1.56,5.12-4.21c1.07-1.24,2.26-3,3.68-4.95C402.63,79.88,412.53,63,414.49,59.59
		 M352.63,66.76c0.99-2.6,2.26-7.7-0.37-9.7c-2.83-2.13-10.03,2.86-10.07,7.98c-0.05,5.24,5.07,7.61,6.3,7.94
		c0.7,0.19,0.94,0.16,1.28-0.4C349.98,72.21,351.63,69.37,352.63,66.76 M347.18,76.29c-0.19-0.06-2.52-1.13-4.95-3.16
		c-2.42-2.02-3.64-4.33-3.73-4.51c-0.1-0.17-0.2-0.04-0.31,0.11c-0.11,0.15-0.54,0.53-4.4,6.18c-3.85,5.65-9.74,17.29-4.4,19.28
		c3.42,1.27,9.11-4.72,12.23-8.69c2.88-3.69,5.58-8.38,5.73-8.72C347.51,76.44,347.37,76.36,347.18,76.29 M407.74,89.76
		c-1.45,2.32-3.1,6.77,1.69,4c5.83-3.37,14.14-15.97,14.14-15.97l3.76,0c0,0-4.96,7.83-11.42,14.98
		c-5.91,6.55-13.12,12.5-18.2,11.91c-5.93-0.69-4.07-8.48-4.07-8.48s-8.52,9.04-14.37,8.39c-7.93-0.88-5.51-10.68-5.51-10.68
		s-8.97,11.03-15.08,10.67c-9.58-0.55-7.17-12.24-4.51-20.42c1.43-4.39,2.75-7.84,2.75-7.84s-0.95,0.25-2.99,0.55
		c-1.07,0.15-3.01,0.26-3.01,0.26s-3.99,7.04-7.18,11.27c-3.19,4.24-16.76,18.81-24.74,15.89c-7.38-2.7-4.94-14-0.64-22.98
		c6.27-13.09,23.91-31.9,34.08-29.43c10.55,2.56,0.24,21.8,0.24,21.8s0,0.07,0.11,0.12c0.21,0.08,0.76,0.14,2.03-0.11
		c2.03-0.39,3.86-1.15,3.86-1.15s10.6-22.2,22.31-36.72c11.71-14.52,35.07-39.52,44.24-33.47c2.24,1.49,1.22,6.61-1.8,12.83
		c-1.34,0.42-2.72,0.79-4.14,1.08c2.02-3.67,3.36-6.76,3.76-8.92c1.38-7.5-16.14,8.31-28.66,25.33
		c-12.52,17.02-20.04,32.43-20.04,32.43s2.52-1.43,6.46-4.6c4.11-3.31,9.77-8.5,15.9-14.84c4.13-4.27,8.99-9.63,13.53-15.62
		c1.36-0.07,2.69-0.2,3.98-0.41c-5.07,6.82-10.4,13.05-14.93,17.64c-4.98,5.05-10.4,10.48-15.1,14.44
		c-7.48,6.28-13.24,9.84-13.24,9.84S360,93.63,365.96,95.05c3.5,0.84,10.42-9.81,10.42-9.81s9.02-13.77,14.46-19.96
		c7.42-8.44,13.81-13.31,20.19-13.41c3.72-0.07,5.91,3.9,5.91,3.9l1.75-2.71l10.77,0.01C429.46,53.07,409.35,87.19,407.74,89.76
		 M437.76,10.35c-7.58,4.86-18.07,9.27-28.15,8.3c-2.55,2.64-5.28,5.69-8.02,9.02c17.48,3.46,32.79-7.37,40.93-16.59
		c5.09-5.75,7.6-10.89,7.6-10.89S445.26,5.53,437.76,10.35 M286.55,27.09l-10.24-0.01l-5.79,9.36l10.24,0.01L286.55,27.09z
		 M238.06,59.47c4.36-5.97,16.38-26.9,16.38-26.9s-0.2-1.47-1.6-1.53c-1.66-0.08-4.42,0.48-9.95,7.38
		c-5.53,6.89-9.79,12.39-12.91,18.1c-3.42,6.23-4.91,10.63-2.95,11.82c0.55,0.33,1.38,0.38,2.06,0.21c1.28-0.32,2.95-1.6,5.24-4.24
		C235.41,63.08,236.63,61.42,238.06,59.47 M183.11,31.17c-2.83-2.14-10.03,2.86-10.07,7.97c-0.04,5.24,6.5,6.74,7.35,6.78
		c0,0,0.74,0.2,1.03-0.42c0.18-0.39,1.07-2.03,2.07-4.63C184.48,38.27,185.74,33.17,183.11,31.17 M178.84,49.22
		c-0.19-0.07-2.9-0.85-5.55-2.55c-2.65-1.69-3.87-4.21-3.96-4.39c-0.1-0.17-0.21-0.04-0.31,0.11c-0.11,0.15-0.68,0.87-4.53,6.52
		c-3.85,5.64-9.56,17.21-4.21,19.19c3.42,1.27,9.17-4.74,12.28-8.71c2.88-3.69,6.32-9.36,6.47-9.69
		C179.16,49.36,179.02,49.28,178.84,49.22 M262.51,52.7l3.75,0c0,0-18.8,27.17-29.43,25.93c-5.93-0.69-4.17-8.01-4.17-8.01
		s-8.35,9.75-15.97,7.8c-6.94-1.78-2.46-13.31-2.46-13.31c-0.79,0.32-15.8,17.24-26.35,13.18c-11.04-4.26-5.31-18.43-3.21-22.69
		c1.78-3.59,3.75-7.09,3.75-7.09s-1.69,0.48-2.75,0.72c-1.05,0.24-2.65,0.55-2.65,0.55s-5.22,8.49-8.41,12.72
		c-3.19,4.24-16.76,18.79-24.75,15.89c-7.99-2.91-6.01-14.08-1.52-22.96c7.28-14.4,24.56-32.1,34.96-29.44
		c10.51,2.68,1.81,19.73,1.81,19.73s2.09,0.27,7.1-3.15c7.23-4.92,16.74-18.16,27.05-16.61c4.84,0.73,9.35,5.7,3.18,15.13
		c-1.98,3.03-5.29,5.74-7.83,3.06c-1.58-1.65-0.2-4.7,1.46-6.78c2.34-2.95,5.57-2.54,5.57-2.54s1.7-3.91-2.63-3.83
		c-3.51,0.07-12.39,8.24-17.4,16.5c-4.6,7.58-11.56,20.5-4.57,23.32c6.41,2.59,18.61-11.89,24.26-19.48
		c5.65-7.58,18.51-24.79,29.31-25.48c3.72-0.24,5.93,3.15,5.93,3.15l1.25-1.98l10.78,0.01c0,0-20.34,33.94-21.93,36.51
		c-1.25,2.01-2.91,6.53,1.69,4C252.95,65.01,262.51,52.7,262.51,52.7 M256.63,107.1c-8.16-5.75-18.11-8.28-27.14-7.92
		c-9.14,0.36-13.24,7.18-13.24,7.18c-4.12-7.19-12.26-11.6-24.85-11.5c-20.34,0.23-40.53,9.61-56.5,9.6
		c-15.34-0.01-26.51-9.64-26.14-26.75c0.66-30,26.02-57.02,44.97-69.18c10.89-6.99,20.01-9.06,25.98-8.39
		c4.35,0.48,9.58,5.51,6.28,12.92c-4.85,10.85-11.55,9.94-11.3,4.76c0.14-3.37,2.38-5.49,4.07-6.65c1.07-0.74,2.96-0.95,3.95-0.97
		c0.96-0.81,1.69-6.74-6.11-4.79c-7.81,1.95-17.2,9.61-26.16,19.49c-8.96,9.87-22.9,28.6-26.35,48.24
		c-1.61,9.11-0.54,25.72,21.04,25.54c18.29-0.15,45.31-12.19,70.12-11.96c9.63,0.09,18.01,2.69,24.54,6.72
		C246.21,97.39,253.9,103.16,256.63,107.1"/>
</g>
<path class="st1" d="M60.38,68.2l21.65,0.01l-0.71-4.92l-15.29-0.01l0-5.96l10.3,0l0-4.95l-10.3-0.01l0-5.1l14.93,0.01l0.72-4.92
	l-21.29-0.01L60.38,68.2z M28.39,68.18l5.63,0l0.01-11.45l13.21,0.01l-0.01,11.45l5.64,0l0.02-25.85l-5.64,0l0,9.37l-13.21-0.01
	l0-9.37l-5.63,0L28.39,68.18z M0,47.38l8.62,0.01L8.61,68.17l5.64,0l0.01-20.79l8.62,0l0-5.06L0,42.32L0,47.38z"/>
<g>
	<defs>
		<rect id="SVGID_3_" width="666" height="107.1"/>
	</defs>
	<clipPath id="SVGID_4_">
		<use xlink:href="#SVGID_3_"  style="overflow:visible;"/>
	</clipPath>
	<path class="st2" d="M666,42.4l-6.21,0l-6.76,12.09l-6.85-12.1l-6.35,0l10.33,17.28l-0.01,8.58l5.64,0l0-8.69L666,42.4z
		 M629.88,42.38l-0.01,17.52L617.5,42.37l-5.84,0l-0.01,25.85l5.49,0l0.01-17.81l12.55,17.81l5.67,0l0.01-25.85L629.88,42.38z
		 M589.13,57.58l3.85-10.23l3.84,10.24L589.13,57.58z M600.79,68.21l5.93,0l-10.25-25.85l-6.93,0L579.25,68.2l5.89,0l2.15-5.74
		l11.35,0.01L600.79,68.21z M569.96,53.76l-7.5,0l0-6.43l7.5,0c1.12,0,2,0.28,2.62,0.83c0.62,0.55,0.93,1.34,0.93,2.37
		c0,1.03-0.31,1.83-0.94,2.38C571.96,53.48,571.08,53.76,569.96,53.76 M570.11,42.35l-13.29-0.01l-0.01,25.85l5.64,0l0.01-9.44
		l7.65,0c1.96,0,3.63-0.36,4.99-1.07c1.36-0.72,2.39-1.7,3.08-2.94c0.7-1.24,1.04-2.64,1.04-4.2c0-1.56-0.34-2.96-1.04-4.21
		c-0.69-1.24-1.72-2.22-3.08-2.92C573.74,42.7,572.07,42.35,570.11,42.35 M549.32,42.33l-7.57,0l-7.59,17.95l-7.74-17.96l-7.57,0
		l-0.01,25.85l5.46,0l0.01-18.49l7.85,18.13l3.77,0l7.94-18.6l-0.01,18.96l5.46,0L549.32,42.33z M498.9,63.52
		c-1.53,0-2.9-0.35-4.11-1.06c-1.21-0.71-2.16-1.69-2.84-2.95c-0.68-1.26-1.02-2.68-1.02-4.29c0-1.61,0.34-3.04,1.03-4.29
		c0.68-1.26,1.63-2.24,2.84-2.94c1.2-0.7,2.57-1.06,4.11-1.06c1.54,0,2.9,0.36,4.11,1.06c1.21,0.71,2.16,1.68,2.83,2.95
		c0.68,1.25,1.02,2.69,1.02,4.29c0,1.6-0.34,3.03-1.02,4.29c-0.68,1.26-1.63,2.24-2.84,2.94C501.81,63.18,500.44,63.52,498.9,63.52
		 M498.9,68.62c2.66,0,5.04-0.57,7.13-1.7c2.1-1.14,3.73-2.72,4.92-4.76c1.18-2.03,1.78-4.34,1.78-6.92c0-2.59-0.59-4.89-1.77-6.93
		c-1.18-2.03-2.82-3.62-4.92-4.76c-2.09-1.14-4.47-1.71-7.13-1.71c-2.66,0-5.03,0.57-7.13,1.7c-2.1,1.14-3.74,2.73-4.92,4.76
		c-1.19,2.04-1.78,4.34-1.78,6.93c0,2.58,0.59,4.89,1.78,6.93c1.18,2.04,2.82,3.62,4.91,4.76C493.88,68.05,496.24,68.62,498.9,68.62
		 M471.76,68.61c2.11,0,4.07-0.34,5.91-1.02c1.83-0.68,3.33-1.7,4.51-3.07l-3.52-3.84c-1.87,1.89-4.12,2.83-6.78,2.83
		c-1.68,0-3.19-0.36-4.54-1.1c-1.36-0.73-2.4-1.72-3.16-2.98c-0.75-1.26-1.13-2.67-1.13-4.22c0-1.56,0.38-2.96,1.15-4.22
		c0.76-1.26,1.81-2.25,3.14-2.98c1.33-0.73,2.82-1.1,4.47-1.1c1.27,0,2.45,0.24,3.54,0.7c1.09,0.47,2.14,1.21,3.14,2.22l3.52-3.91
		c-1.15-1.34-2.62-2.36-4.43-3.05c-1.81-0.7-3.78-1.05-5.91-1.05c-2.75,0-5.23,0.58-7.43,1.74c-2.2,1.16-3.93,2.76-5.17,4.81
		c-1.25,2.05-1.87,4.33-1.87,6.84c0,2.51,0.62,4.79,1.86,6.84c1.24,2.04,2.97,3.65,5.18,4.81
		C466.45,68.03,468.96,68.61,471.76,68.61"/>
</g>
</svg>
