<?xml version="1.0" encoding="UTF-8" standalone="no"?>
<svg xmlns="http://www.w3.org/2000/svg" width="1000" height="349.652" xmlns:dc="http://purl.org/dc/elements/1.1/" xmlns:cc="http://creativecommons.org/ns#" xmlns:rdf="http://www.w3.org/1999/02/22-rdf-syntax-ns#">
  <metadata>
    <rdf:RDF>
      <cc:Work>
        <dc:format>
          image/svg+xml
        </dc:format>
        <dc:type rdf:resource="http://purl.org/dc/dcmitype/StillImage"/>
        <dc:title/>
      </cc:Work>
    </rdf:RDF>
  </metadata>
  <defs>
    <clipPath id="a">
      <path d="M0 0h612v792H0V0z"/>
    </clipPath>
  </defs>
  <g fill="#d31245" clip-path="url(#a)" transform="matrix(10.3654 0 0 -10.3654 -4991.695 7836.742)">
    <path d="M573.96 744.84c-1.69.003-3.223-1.36-5.13-2.947-1.75-1.454-5.33-5.13-8.596-7.224.91 1.43 3.104 4.52 3.434 5.97.347 1.52-.767 2.11-2.3 1.17-1.67-1.03-3.263-5.98-5.622-5.98-.43 0-.73.21-.726.69.01 1.45 2.255 4.34 6.285 5.93.625.25.865.653.868 1 0 .11-.018.844-1.256.844-3.98 0-9.352-4.645-10.105-8.206-.775-.78-2.17-1.936-3.938-2.69 1.996 2.827 3.714 5.1 4.615 7.46 1.04 2.75-.44 3.11-1.96 2.306-1.48-.782-2.52-2.953-2.96-3.78-.43-.82-.8-1.87-2.1-2.915s-2.65-.87-1.698 1.17c.853 1.822 2.77 3.733 4.42 4.613.39.21.733.334.72.86-.02.835-.986 1.414-2.363.82-1.87-.81-2.768-1.35-4.353-1.35-1.258 0-1.91.34-2.447.563-.72.306-1.25.2-1.53.11-.252-.086-.65-.33-.983-.695-.264-.29-.487-.765-.54-1.07-.37-2.23-2.322-6.23-3.756-6.23-.495 0-1.04.14-.9 1.28.23 1.866 2.48 4.388 3 4.89.52.506 1.5.85 1.57 1.41.06.47-.226.995-1.15.995-3.033 0-7.086-4.204-7.49-7.98-.47-.44-1.036-.87-1.683-.87-1.4 0-1.798 1.31-1.698 2.35 3.684 3.324 10.672 10.735 10.883 16.01.05 1.26-.564 1.89-1.596 1.89-2.6 0-6.244-3.8-8.51-6.73-2.788-3.608-4.504-7.965-5.11-11.268-2.04-1.77-2.868-1.888-3.756-1.888-1.234 0-1.665.893-1.626 1.595 3.44 3.126 9.42 10.574 9.54 14.255.036 1.09-.58 1.604-1.683 1.604-2.345 0-5.666-2.475-8.054-5.734-2.385-3.26-3.932-7.094-4.37-10.57-1.785-1.604-3.12-1.93-4.22-1.93-.665 0-1.153.468-1.27.664 1.58.912 5.18 3.2 5.18 6.61 0 1.694-1.143 2.45-2.28 2.45-2.892 0-7.44-3.604-7.41-8.578 0-.088.014-.394.03-.505-1.31-.45-2.212-.91-2.004-1.852.19-.854 1.25-.81 2.63-.323.318-.59 1.67-1.563 3.58-1.563 2.586 0 4.56 1.227 6.12 2.56.655-1.535 2.27-2.34 3.96-2.34 2.05 0 4.08 1.39 5.68 2.65.186-1.177 1.383-3.01 3.454-3.01 1.89 0 3.334 1.1 4.475 2.29.3-1.2 1.4-2.15 2.834-2.15 4.783 0 7.465 6.77 8.083 9.2.08.31.376.38.58.307.89-.31 1.326-.464 2.45-.336-1.82-1.43-3.424-3.87-3.424-5.653 0-1.78 1.543-2.607 2.67-2.607 1.13 0 2.624.73 3.607 1.65-.26-.524-.61-1.325-1.17-1.89-1.03-.283-4.05-1.373-5.97-2.54-1.82-1.11-3.58-2.874-3.58-4.904 0-1.086.89-2.36 2.983-2.36 3.518 0 5.98 2.3 9.3 8.34 2.75 1.153 4.4 2.23 5.48 3.145.474-.826 1.386-1.21 2.3-1.21 1.35 0 2.16.39 3.25 1.173-.15-.37-.39-.926-.76-1.42-1.966-.818-4.327-1.9-5.536-2.63-3.225-1.944-3.94-3.687-3.94-5.06 0-.84.72-2.3 2.893-2.3 4.7 0 7.61 5.845 9.506 9.15 1.39.737 3.376 2.104 5.417 3.67-.07-.25-.103-.51-.103-.805 0-1.467 1.33-2.847 3.51-2.847 4.307 0 5.647 3.174 5.594 6.6-.02 1.12-.185 2.012-.2 2.41-.04 1.046.308 1.61 1.26 1.61.96 0 1.61.17 1.61.99 0 1.135-.81 1.65-1.91 1.65m-43.4 6.08c.123 0 .174-.11.17-.28-.037-1.35-3.51-6.805-6.723-9.98 1.934 5.685 5.79 10.26 6.55 10.26M503.1 737.2c.14 2.423 2.06 4.29 2.818 4.29.28 0 .41-.16.41-.493 0-.864-1.16-2.67-3.223-3.797m16.32 11.68c.145 0 .207-.113.202-.297-.025-.998-2.525-5.58-5.734-8.755 1.686 5.15 4.43 9.05 5.53 9.05m17.557-23.46c-.246 0-.37.16-.37.396 0 1.473 3.27 3.214 4.985 3.843-.74-1.198-3.456-4.24-4.618-4.24m13.09-.08c-.24 0-.33.144-.33.38 0 1.3 2.964 3.314 4.677 3.942-.89-1.54-3.365-4.32-4.35-4.32m17.865 9.36c-.206 0-.52.05-.52.743 0 .504-.24 1.062-1.118 1.062-.12 0-.25-.01-.398-.035 1.88 1.49 3.35 3.13 4.72 4.24-.28-3.39-1.09-6.01-2.69-6.01"/>
    <path d="M566.277 745.468c-.063-.595-.726-.862-.784-1.394-.033-.31.186-.515.572-.51.986.01 3.63 1.536 3.86 3.91.116 1.197-.632 2.236-1.937 2.236-1.32 0-2.514-1.238-2.625-2.278-.107-1.017.975-1.385.914-1.964m-68.717-16.742c-.847.044-1.244 1.055-1.244 2.28 0 1.347.87 4.265 1.215 5.646.35 1.393.5 3.646-.76 4.938 4.79 1.927 11.88 8.49 12.79 9.923.91 1.435 1.09 3.26-.17 4.172-1.25.912-3.3-.278-4.51-2.02-3.33-4.802-5.34-7.146-7.61-9.12-1.77-1.54-2.63-1.565-3.48-1.683 0 0 3.27 5.353 4.49 6.96 1.465 1.922-.34 2.64-2.09 1.426-.355-.247-3.122-2.16-6.474-3.89-5.97-3.08-7.407-4.5-7.407-6.348 0-.82.57-1.852 1.77-1.852 2.34 0 4.654 4.182 5.787 5.223.44.41 1.463 1.3 1.86 1.3.13 0 .22-.08.22-.33 0-.8-1.553-3.07-3.96-5.67-3.492-3.77-6.35-5.29-6.35-7.7 0-1.57 1.18-2.42 2.456-2.42 2.69 0 4.49 3.59 5.566 5.37.43.71 2.803 5.133 3.303 6.09.52-.277.84-.854.67-2.026-.32-2.11-2.2-4.666-2.2-8.23 0-2.91 2.69-3.823 3.77-3.825.998 0 2.318.385 2.646 1.384.04.15-.01.403-.276.42m79.518 16.53c.56 0 .92-.36.92-.923 0-.56-.36-.92-.92-.92-.565 0-.923.36-.923.92 0 .566.356.928.922.928m0-1.62c.425 0 .694.273.694.7 0 .427-.27.696-.694.696-.428 0-.697-.27-.697-.694 0-.424.27-.7.694-.7m.06 1.17c.143 0 .304-.07.304-.278 0-.138-.09-.22-.19-.26.064-.09.114-.218.19-.218h.053c.01-.01.02-.03.02-.07 0-.064-.047-.11-.14-.11-.18 0-.2.214-.32.37h-.107v-.35c-.02-.014-.07-.02-.11-.02-.06 0-.11.01-.11.1v.824c.02.01.06.014.108.014h.3zm-.187-.17v-.23h.137c.096 0 .15.045.15.12 0 .07-.05.11-.13.11h-.156z"/>
  </g>
</svg>
